/* XPM */
static char *fa2f5b0add0e47b38f2bba902bca0a92XlGTkAWoOGjyC1w8[] = {
/* columns rows colors chars-per-pixel */
"64 64 106 2 ",
"   c #3A392D",
".  c #3D3C31",
"X  c #3E3E39",
"o  c #403F35",
"O  c #454436",
"+  c #45443C",
"@  c #48473B",
"#  c #49493D",
"$  c #464643",
"%  c #494742",
"&  c #4B4A45",
"*  c #4D4D4C",
"=  c #504F4C",
"-  c #545244",
";  c #52514E",
":  c #5A574F",
">  c #4F5051",
",  c #545453",
"<  c #585754",
"1  c #575856",
"2  c #5A5956",
"3  c #575859",
"4  c #5C5C5C",
"5  c #605F5E",
"6  c #62615D",
"7  c #5E5F60",
"8  c #605F61",
"9  c #5F6062",
"0  c #636364",
"q  c #6A6966",
"w  c #656669",
"e  c #686768",
"r  c #67686B",
"t  c #6A6B6C",
"y  c #706F6D",
"u  c #73716F",
"i  c #6C6E72",
"p  c #6F7075",
"a  c #727375",
"s  c #787776",
"d  c #777877",
"f  c #74757A",
"g  c #787778",
"h  c #77787D",
"j  c #7B7B7D",
"k  c #817F7E",
"l  c #81807F",
"z  c #7C7E82",
"x  c #807F81",
"c  c #7E8085",
"v  c #828183",
"b  c #898786",
"n  c #8A8887",
"m  c #818388",
"M  c #86888B",
"N  c #8B8B8B",
"B  c #918F8D",
"V  c #8E908F",
"C  c #94918D",
"Z  c #98948F",
"A  c #8D8F90",
"S  c #8E8F91",
"D  c #8E9090",
"F  c #8F9091",
"G  c #919192",
"H  c #909293",
"J  c #949393",
"K  c #949493",
"L  c #929395",
"P  c #919497",
"I  c #939696",
"U  c #949495",
"Y  c #959796",
"T  c #999692",
"R  c #9C9995",
"E  c #939799",
"W  c #979798",
"Q  c #979899",
"!  c #979B9D",
"~  c #999A9A",
"^  c #9A9A9A",
"/  c #9B9B9A",
"(  c #9D9D9B",
")  c #9C9D9C",
"_  c #A09E99",
"`  c #A2A19D",
"'  c #9A9FA0",
"]  c #9EA3A3",
"[  c #9EA3A4",
"{  c #A0A1A0",
"}  c #A0A2A3",
"|  c #A3A3A2",
" . c #A4A4A3",
".. c #A3A7A7",
"X. c #A4A6A4",
"o. c #A5A6A5",
"O. c #A6A8A7",
"+. c #A4A9A9",
"@. c #A7AAA8",
"#. c #A4A9AA",
"$. c #A4AAAA",
"%. c #A9ABAA",
"&. c #A8ACAB",
"*. c #AAADAA",
"=. c #A9ADAC",
"-. c #ACB3B2",
/* pixels */
"e t t t w 9 r r t t t i a j d j a e < & % $ , < 4 7 3 0 0 q r u a a d a a a t r r s y r 6 - ; * < 4 4 0 w w 7 3 7 7 9 r 0 0 q r ",
"U U U / E A P D H Q ' [ +.+...} } ) v 3 $ w H / Q ) ( } o.o.} X.X.@.*.*.%.O.` ` o.%.%.O.H 6 ; t v N U ] ' ' E E A F P P E H P U ",
"D N N N P P P c N A P ! [ +.+.+.+.+.A 8 # s =.U N H D N U H N H N N B N D P / / / K K R C w - n &.=.-.-.[ [ ' E E P P F H M N N ",
"w 9 0 w r r r w i t i i f h j m z A x 7 & t N 0 5 0 0 0 e e 0 r r r q r r r t t t r q t i 4 < A D z c j z i w w 7 r 9 i i r w r ",
"9 9 9 i i r w r i r p i p p p f a z f 3 & 2 t 0 4 0 0 r t t t t t t t t t t t i t t e r i 4 < c p p p i r r w w w 7 4 9 9 9 9 w ",
"w i i i p p z p z z z z h h h z z z i 7 * < e t t e a f f f a a f f h f f a f p i a t r p 9 , p p p i i p p i r w w t r w w w 9 ",
"i p f p z z p z z z z z z z z z z z i 4 - 3 e t a a g g h f f f f f g f f f f f a t t r a 7 > w i r i i p i i i i r r r r r i r ",
"i p z z z z z z z z c c z z c z z z t 4 < 4 t a a a g h f j g f g f j h a a j a a a a t p 4 * 9 w r r i p z z i z i p i i i i p ",
"z z z z z z z c z z z z z z z z z z 9 7 3 7 a z j j j j j j k j h h j h g g h h j h g a p 7 > w i i i i i i z z z z z w z 7 w z ",
"z z z z z z z c i z z z z z r z z p r 7 < 7 s v v l z v v k v v v v j j h g j j h j h g p < , p z p p p p z z z z z z r z z z z ",
"z z c c z z c c z z z z z z z z f z p w 4 0 a v v v v l v v l v v k k j j j j j j j k j p ; , f z z z z z z z z z z r z z z z z ",
"z z c c c c z ] z z c c z z z r z z f r 4 0 a v v v v v k v v v v v v x x x x k v v v x p > > f c c z z z z z z z z z z z z z z ",
"z z z z c c c c c c c c z z z z z z f e 5 5 a v v v v v v v v l v v v l v v v v v l v x i * , p c m m c z z z z z z z z z z z z ",
"z z c c c c c c c c c c z z z z c m i 7 : 5 s v v k v v l v v v v l v v v v v v v v v k i & > a c c c m z z z z z z z z z z z z ",
"c c c c c c c c c c c c z z z z m m t 2 : 6 s v v v x v v v v v v v v v v v v v v v v k t * 3 i c m m c z z z z z z z z z z z z ",
"c c c c c c c c c c z z z z z z m m t 2 : 6 j b l v v l v v v v v v v x k x x x l v x v i * < i c c c c z z z z z z z z z z z z ",
"c c c c c c c z z z z z z z z c c c r 3 > 5 j b k l c j j j j j z j x x x k x x x z k v p * < a c c c c z z z z z z z z z p z z ",
"c c c c c c z z z m m z m z m z z z 7 > > 4 j b v v l v l j j l l z x k v v v v v v v b a $ , h m m c c z z z z z z z z z z z z ",
"z z c c c c c c z m z z z z M z c z r 7 # 5 k b l v v l v v v v v v v v x v v v v v v v a $ , f m z c c z z z z i z z z z z z z ",
"z z c c c c c c z z x z M m M E c z r 3 - < j b v v v v v v l v v v v v v v v z v v z f , X = f m z c c z z z z z z z z z z z z ",
"z z z z c z z z z f z z z z z z f i 4 < < 6 s b c v v v v v v c v v v l j s q 0 0 q e 0 $ . = i m z z z z z z z z z r z p z z z ",
"z 3 z z z z r w t t 8 r 7 r i i e 0 2 : : 2 u s a a a a a a a f a a y r 4 0 t w 2 = 0 w = . + 0 p z r w r 9 9 z 9 w 9 z r i i i ",
"> > > 3 3 3 3 3 < < 3 3 7 7 8 8 3 < < : ; - < 2 < < , , < = > * * * * & # & ; * $ $ * * %     # > > > > > > > > > 3 3 3 3 9 9 9 ",
"> > > > z 7 7 9 5 q 5 8 8 7 8 7 6 0 6 2 2 2 2 - - - - - # O O O O + % # O + + + + + + + + . . o X $ $ > > > > > > > > > > > > > ",
"> 3 z z c M M m M A N N M A A M N N n b c c M c z z j f i r 9 , % & 4 0 4 2 6 e q y i a a y y y t q t j l v j d z z z i r 9 7 > ",
"$ 9 z E ! c ' ' Q Q Q W E c E P U K H H c z M A M c c c z z M i & 2 j C V C C R T K B C C Z Z Z R C Z ( / R / / c c ' c A c i > ",
"$ r z z z z z z f f h f z z z z z z h h z z r z f a p e w z z w & < a z j j j j k k k k v k k s s u t t q y t j z z z z v z i * ",
"> w i r 9 3 > 7 w w t t 9 z 9 z p a p a w z z z f f a i 9 9 z 9 & < p p q 0 0 0 0 0 0 0 0 0 5 < < 2 2 3 4 w t p z z z z i a t * ",
"* 7 r w 7 7 3 w i i r r i z z r f z z i p z z r f f p p r r i 7 $ 3 d p 0 4 4 4 4 4 4 4 4 3 2 ; ; < < 3 0 e i a a a f j f a w * ",
"> w z i r r z 9 i i i i i i r z f f p z z p i z f f p i i i i 7 * 9 j p 0 4 6 6 8 0 e e e 0 0 0 4 5 4 e r e a a a s j g h a w * ",
"> r z i z r z z p i p p i i z z z p p p i z z i f z p z z r i 7 ; w j p 0 6 0 e t i i i i a a y i i p p a a f f s s a j h f 0 * ",
"> r z i z r z r z p z p z z z i f z z i z i i z f p p z z z z 7 , 0 j d i i p p a a a f j j j j h j j h j j k x x z x z z f 0 * ",
"> 3 z z z z z z c z c c c c z z c c c c z z z z z z z z z z p w > w j j g j j l k k k x v v l v l v k v k v v v v v v l v s 8 * ",
"> z z z z z z z m m m m m m m m c c c c z c c c z z z z p f p 0 = w j v l j l c v v x x x v v v v v v v v v v x v l v v v k 8 * ",
"> z z z z z c S m c c m m m m m c P c c c c c c z z z z z z p 0 * 0 j l l l c l b k v l v v v v v v l v l v l v v v l l x j 8 * ",
"> 9 z z z z c c c m m c c m m c c c c c c c c P z z z z z z f 0 & 7 j v v v v v l v v v v v v l v l v v v x b v v l b v v h 8 * ",
"> z z z M c c c m c m c c m m m c c c c c c c c c c c c m m h 0 & 3 l v v v v l v v v v k v x v l v k b k x v v v v v x v k 8 & ",
"> z z z c c c M c M c M m m m c c c c P c c c c c c c c m M h 7 & 2 j v v v v v v x k v v v v v k b v v v v x v x v v v b x 7 & ",
"$ z c c M c c c c c c M m m m m P c c c c P c c c c c A m n f 4 * 2 j l v l v v v v v v v v v v v v x v v x b v v v v v v k 8 $ ",
"> z z E c c M c M M c c m m m m c c c c c c c c P c c c m m i < ; 3 d v v v v v v v l v v v v v x v v v v v k x v v v v v f 7 $ ",
"X r z x z z z m z x z z z z x c c c z z z z z z z z c z z z i > ; 4 t j h s h h j j l j j j x x k j j k k k k k k x k k g t 4 $ ",
"$ > 0 t t t r r r e 7 7 r w 8 7 3 z 3 > 9 9 7 9 4 7 7 7 3 3 , % = < 3 6 w w w r r r q t e e q e e e e q 0 e 0 0 e q e e 8 8 , $ ",
"> > 3 < 3 < 3 3 2 , > = > * * * > $ > > > $ > > ; * * * & & & & ; - ; * ; ; ; ; ; < 2 ; - ; & ; & = = = ; , , < : , ; = = < & & ",
"r i t t y y t w 4 , = & , w i i z z z z z z z z a s u a y i y a a j j a a p 0 ; # & 2 q q y t u y a s s g j s j s g g a y y q 0 ",
"b b N B B T R J j 8 , = t H F F H A A N z P M M n N N B N N H H H C N P K H N t % , l ` o.X.R Z R _ _ _ ` o.X.X.} / R T Z B B N ",
"y y q y y f v v x t , , a J J B B M b b z z v z v v v v n b N N N D U U U K P j & < n _ N k a d k k b v n N N v v j h h g a a y ",
"4 8 0 5 8 e i y p e = 2 a n A N x g a s a i f i t y t t t t t t i a a v H P Y m > 3 v b e 0 6 e e t q q t t t t e t t t t e 5 2 ",
"0 t r w w t p i p w ; 4 a v N j 0 0 e t w t t i t t q e 0 0 0 7 4 6 6 e u n ( v * 7 f j r r r q e t t t t i t e t t e t e e 0 8 ",
"a a f a a y a a i t , 4 y x N f e t i t t t a a a a a a t t t w e e r r e j / v ; 8 s j i t i i i i y a y a i a a f f a a a a a ",
"z z x x x j f i i t , 4 p j x s a f f a a a a f a a a a a a a a a i a a a z ) j > 0 a z f f a a f f f f f j j j j z x k j z j z ",
"k v v v v x k a p t > 4 y j x f h g g g j g g j h j g f g f a a a a a g j v H t & 0 p j j h j j j h j j j j j k z x x z x x x v ",
"v v v v v x x k f t > 4 i x x f g a a s s a a h h k j h h g j d g h j j h x v 4 & 7 y h j j j g h j j j k j z k j j j j j j j v ",
"v v v v v v v k j i * , t v b x k k j k k k g j j k k j j a s s g j k j k x g , * 7 i j k k g j j k k j k k x v v k k k j k j v ",
"v v l v v k v v z w * > i v N x v v v l x v x k k k k k k j j j z v v v v v g < * 7 p x v l x x z k k k x x v l v v v l v v l v ",
"v k v v v l b v j t , > t v b x l v v l x v v l v b v l j k j j j l v k v v a 3 * 7 p x v l v v x v v v v l v v l v l v l v v v ",
"v v v l v v k x v t , , t b b v v v v x x v k v v v b l k s j j j v v v x v p , = 5 g b l v v x v v x v v v v l v v v v v v l v ",
"v l v v v k v v x t ; 2 e n M v v v v v v v l x v k k k j j j j j l l v v n a < * 4 h v v v v v v v v v v v x v x v l v v v l v ",
"v v v v v v v v v t ; 3 t v b v v v v x v v v v k j k v k k j j j k j v v N a ; > 3 s v v v v v k v k v v v v v v v v v v v l v ",
"v v v v v v v v b q , 4 e x N v v v v v v v x v v v l k k j h j j j j v v n t , , 4 a b v v v v v v v v v v v v v v v v v v v v ",
"v v l v v v v b b q - 3 8 f B n v n n b b v v v v v v v l k v v l v v v b n e * = 3 a b v x x x v v k v v v v v l v v v v v v v ",
"l x v v v v v N v e # ; 8 t z v n N D U N b z z j j j j x v n b v b N N N j 8 > = , e a a p p a s f f a f h x x x x x x k k x x ",
"s g j k z j j j a 6 & < 4 4 4 0 0 0 e t a q 0 7 5 0 0 4 8 8 0 e t t y a p 0 4 = > , 8 0 8 8 w w e t t e t t i a f f a a s a a a ",
"8 0 8 0 r i i e 0 ; % * , , < < , , * , = * * * * ; * * * > ; > 2 3 3 3 < ; = & & & * * > * > > > ; > ; , < 2 < 4 8 8 7 4 4 8 8 ",
"& & & & ; < 2 < = * & & & = ; = , * & & % & & & * & % % & & > = * = & & $ & & # & & = * & & & & & & & = = * & % & & & & & & & = "
};
