/* XPM */
static char *c6a735231a1146d1fda5442dc08bec9ee3KrV26eIw6ONJph[] = {
/* columns rows colors chars-per-pixel */
"64 64 67 1 ",
"  c #050507",
". c #060607",
"X c #070709",
"o c #080709",
"O c #0A0A0B",
"+ c #0B0B0B",
"@ c #0C0B0B",
"# c #0B0B0C",
"$ c #0C0B0D",
"% c #0D0C0C",
"& c gray6",
"* c #100F0F",
"= c #0F0F10",
"- c #100F10",
"; c #0F1010",
": c #121112",
"> c #141313",
", c #141413",
"< c #131314",
"1 c #141315",
"2 c #131414",
"3 c #161515",
"4 c #151616",
"5 c #171617",
"6 c #161717",
"7 c gray9",
"8 c #181718",
"9 c #171818",
"0 c #181818",
"q c #191919",
"w c #1B1B1A",
"e c #1B1B1C",
"r c #1C1B1C",
"t c #1B1C1C",
"y c gray11",
"u c #1E1E1E",
"i c gray12",
"p c #201F1F",
"a c #20201F",
"s c #1F1F20",
"d c #201F20",
"f c #1F2020",
"g c #222222",
"h c #232323",
"j c #242323",
"k c #242423",
"l c #232324",
"z c #242324",
"x c #232424",
"c c #252525",
"v c #272727",
"b c #282727",
"n c #282827",
"m c #272728",
"M c #272828",
"N c #282828",
"B c #2A2A2A",
"V c #2B2A2B",
"C c gray17",
"Z c #2C2B2A",
"A c #2C2C2C",
"S c #2D2C2C",
"D c #2F2E2E",
"F c #2E2E2F",
"G c #343231",
"H c #363433",
"J c #333334",
/* pixels */
"44=OOO#&&14q4:::::O&O&::&#XX$&*$&:::&:&::=&&&:::4::&$&$O:*OXXO:2",
"&qguquqruspggjgcBgggzgurqqq4qurrq:&&qcBBggdgggzzgguuugguguuttq9;",
"&gBcggpgggggugguuggzgduBDBcqqqqgg4:&uJAMcgcccggduuuuuuucgqufggg2",
"#uguuuuqeuququuuurusduugguqqqquqgu&&sDcgguddgfuduuuququuguqtfugq",
"&ucuurquququyuuuuqqugduuqqqrruuqrc4&ugfuududuuuuguquruuuuuuuuqqg",
"Oucqqyuuguqqqqqqqqugguuudqqqquuuug4&uqqerruuuuuuuuuuqgduqruqq4qu",
".qcquufguquqqquqqqudupuguduuuuuuuzq:p4qqqrquuquuuuutupuuuquq4qqu",
"Oqcuuguuuuuuuuuuuquudddgduguuuuuuc4*p44qrquuquuuquuuuuuuquqqutqu",
"O4Bgueqqquguuuuuguuuugguusguugr8qc1&qq4qqqyuuuuuruuuuuuuqqquguuu",
"*uBuuuuqqugugggduugggdggufugugduuc:Ouqquuqqqqruqruqquuqqurqqrurr",
"Oqcuuuuuugggggguuguguguuuuguugggccq&quuqrqquuuuuuururuuuuuqququ4",
"@4geuuugguggggggugduuuusugugcggggq4:quuurqququqqruuquuuuqruuuqgB",
"$0auudgduggggggufguuuuuuuuuggudgqq:*4urq0uuuuuuuuuuruguquqqruyug",
"%4gugguuduuuugdgguuuuuuuruuqqutqgu:*>rrqqyuuuagpupuuugguuuuqqquu",
"*qgguugugudgugdgggugupuuuuuqqquqqu4$:qguuuuuuuggdsguuuguuuuuuruq",
"Ouuuguggugddguuuuggudusuuffuuqququ4-,uguuuuuggjgggpggugguugupurq",
"&qgzgcgggpggduggggguguugpguduurqtf9:4uugggzggcgggcggugguuugguuuq",
"*qaggBccczgggzjggspggcguggduuduuuu4=4qguggBccguglzcccccguuduuqur",
"*uggccBccczgdgguuguuupuudurpggzggu:&4duugggbBggggczcjcccggdgupg4",
"O:4qruuuruq4884qq4qqqq4q8444qqdu4<&#-rupcNBBcuuqduuuuqggugpqq4&O",
"O:&&&:&&@O@#OOO#$O@@&$&#O$&&&&::=&OX..X$:>::=&#O&OO&&&**#&&OO&#O",
"tq84:quupuqq<::::::&-ugguqruquggdqqq1:1q44<:::4:>441>:4444&o$ugg",
"ZBBncZZbccggsguxggburZgggjjbbBcgjpzDDBHGBcccgggggglggkgkzu&X*BBZ",
"pgBDDbauueueuuugcccDbcdggdggjgggduucBsBDcsgccccccBBcccccgz&.:bgu",
"aggccguuuuuuuuuugggBBguuuggugguudduuducDBuggzzggggggguuggc:X:cgg",
"uppgcguuuuuuuuuuuuucBgruuuguugudupuuddgcBucczczgggggggggdB:o<ggu",
"uuuuugguuguuuquuusgucguuugudduuuuuuuuggcguggddzcllcxcccdud4@4ucu",
"rruugguuuuuuuquugguugguuuuudgugdguguuggcgguudgdgggddggcgug4.:qzu",
"quuufuugguuuguuuuuusgcuduuugguuuuugggggucguudgdggguuugucuguO:ugq",
"uguuugugduquguuuduggggguuuuggguggugggggggusggggggguuuuugggu#4ggq",
"uuquuuuqquuuuduggggcgguuququusgggugulccguudugggsgguqqguuugqX:cgu",
"quuqquqqquggggfuuxcgguurquuquuuugugugccguuugguugggquuguggc:.:cgu",
"uuuqgguuuuuggguuuuuuuggqquuqgugupguuccggguggugugcguqufmggc-o:Bur",
"qrquggguuuugsuuueuurugguuuquupugguglcgggguuuuugdguguucBgcc-.:Muq",
"quggcggcggcgsurrquruugguuuuguuugugggzgggcutuquduuruuuBcgcB:O4cu4",
"qqqugguzccggutqrqqrsgcgudpguguguggggzcggcxuquuuuuuquglDcgz>@4cpq",
"84qqguuuguuuurqrqqudgjduuuquuuuucggggcgczsueuuquuqufgdccgu1Oqcqq",
"4q4ugupuuuqqqqqquuqqpjguqququuuggugueugzgguuuuuuuuulggcguBq.8cqq",
"4qudguuuuqqq8qqrrqrquqguuqququgjguguuudgcguuuuguggcuggucpBuo4guq",
"ruq:8yquuuqqrgqququgq&444>444:44ucggugggguugguqqugcuggsBBBq$:ggu",
"&&::::22:<<:4q4>:::q4&:&&&&24*&&&>4444=-$##&::&<:@OO@&:4qq,1>:&$",
"4qrqqruuuuut448ruqquqq:4::::4OXO4qrduu44:&<-::&O$O@@&@$O::444*@-",
"cBBDBSBBDBDBBnBcccBBccggdugBa:O:cBDBBmcgdllcBBcuquurr4#&uggucclB",
"gpggDDBBcBcBBbgguuuggjguuuuBZf;fBbcBBcDDBmmccbBcccNggu=:ccguzBcu",
"uuguggfgggugggggpdudggguguuuBu:gcuquddgcggguugggggguud1:zggggguu",
"uuuuugguudguggpguugggdgduuuugu:pdrudguuueuuguuugupugpj8>bcgguuuu",
"qrugugguuduguggduuduuuuuuuugcq4ugruuguduruuugguuuuggzg4:cBgguuuu",
"uq4uggu4qggguguduuuduuuuuuuccu*ydrugggguuuuuguuqugggzg4:gccuququ",
"dcuugq48qrgggpuuuquurqruugdBj8*ququuggguuuglgugudcggcc8-gcBsuruu",
"uuugp444qquuuuurueuuuuuuuqgcr4O0guuusggqqudlgqusggjggcr4ccBuuruu",
"uuudduqqqruuuuuuuuuduugruqeuqq:8ccuuulguudggguugggggcbu8cccuquuu",
"uuguuuggggupuuguduuudguuuuqgqr44glrrrgDBccggggugdgggccqqcbBurquq",
"uuuudguggdsuuuzgugucguqqquscBg4ugruqqugcggggguggdgguccqqccBuruuu",
"uguggugggggggjBuuuugguruuuugBq4cgrquuquuggccguugugguugq4cBguruuu",
"guguuruuugcggguuuuggugquuuugc4-gguuqququdlcccgduguuuggq:ccuqrqup",
"ruuuuuuuuuggguuududgguuuuuugBq&qguruuquudgcgczguuuuuuu4&gguquuug",
"uquuuuuuuggusuuuuguguuuqruqgBr:ygruquuquupuuggggguuuuu&@ggrurudd",
"guuuuuuuduuuugguuuuuuuuuuruucy4quueucuqqggquzzguuuuuup$Ogcruuudg",
"guuuugguuuutruuddguuudgsuuurcq4ququecugBcquqccBguduuq4oOucuudddg",
"geuugguuguuuquuuuguruuuguuugjq4uuuuqqsucgqugucBzuuuq4:oo4uuuusdg",
"uugfgapuryrruquuuguuquuguuggd::qguuquguuuuuuukuuruu4q4OX4uguuuug",
"uuguuguurr8rqq8quuuuuuggggBu:@&4qguguqrcuuuuduquuuqqr8OO4ggsggdq",
"guuqruy8884844qguqquqggugcu:*@O:uuaucguguuqudugquq8qq4OO:jguuuuq",
"uuqq4,0r8>44444:8quuuquq4:O&OoX&4qp4qqq894:::442:::-&&.X:ucggdus"
};
