/* XPM */
static char *_840415c60fa4e4ae5d68a070a9e80d7xduxoBkOA0xkmOem[] = {
/* columns rows colors chars-per-pixel */
"64 64 115 2 ",
"   c #3E2729",
".  c #42262D",
"X  c #48252E",
"o  c #452C2A",
"O  c #4B2C2D",
"+  c #512D2F",
"@  c #4C302B",
"#  c #53332F",
"$  c #4E2D30",
"%  c #512F30",
"&  c #4F3030",
"*  c #543332",
"=  c #5A3633",
"-  c #5C3A33",
";  c #633D35",
":  c #683F36",
">  c #653F38",
",  c #664135",
"<  c #694236",
"1  c #6E4A36",
"2  c #664139",
"3  c #6C433A",
"4  c #6E4939",
"5  c #714A37",
"6  c #71463B",
"7  c #744C3A",
"8  c #7A4D3D",
"9  c #775039",
"0  c #7C513D",
"q  c #744B42",
"w  c #7B4E41",
"e  c #765040",
"r  c #7C5243",
"t  c #7C534D",
"y  c #81543F",
"u  c #814F40",
"i  c #835543",
"p  c #885544",
"a  c #855946",
"s  c #8A5946",
"d  c #845649",
"f  c #865A4A",
"g  c #8B5C4C",
"h  c #915E4E",
"j  c #8D5E51",
"k  c #915F51",
"l  c #8E604E",
"z  c #91624F",
"x  c #8E6152",
"c  c #936355",
"v  c #986556",
"b  c #9A6857",
"n  c #916259",
"m  c #946458",
"M  c #966458",
"N  c #966459",
"B  c #966658",
"V  c #966659",
"C  c #96655A",
"Z  c #97665B",
"A  c #986659",
"S  c #99675C",
"D  c #9A675C",
"F  c #99675E",
"G  c #96685B",
"H  c #98685B",
"J  c #9C685B",
"K  c #9B685F",
"L  c #9C685D",
"P  c #9D695F",
"I  c #9C6C5E",
"U  c #A06C5F",
"Y  c #A1705F",
"T  c #9E6761",
"R  c #9C6A60",
"E  c #9C6B60",
"W  c #9D6B60",
"Q  c #9C6B61",
"!  c #9D6C61",
"~  c #9D6B65",
"^  c #9F6E67",
"/  c #9F6D68",
"(  c #9F6E69",
")  c #9F7064",
"_  c #A06D61",
"`  c #A16E60",
"'  c #A16D63",
"]  c #A36E65",
"[  c #A26A69",
"{  c #A26E6A",
"}  c #A36F6A",
"|  c #A56E6D",
" . c #A46F6D",
".. c #A17063",
"X. c #A47062",
"o. c #A37265",
"O. c #A47166",
"+. c #A2706B",
"@. c #A4726B",
"#. c #A67469",
"$. c #A3706C",
"%. c #A5726C",
"&. c #A4716E",
"*. c #A6706F",
"=. c #A8756B",
"-. c #A9776B",
";. c #A8756C",
":. c #A7786C",
">. c #A9796D",
",. c #A67471",
"<. c #A97A73",
"1. c #A97678",
"2. c #AE7B7E",
"3. c #B17D80",
"4. c #B38085",
/* pixels */
"3 - = = % + + X X O % * * = = - - ; = = * $ * * = * = = * * ; 2 3 6 6 q 6 3 > 3 3 3 3 2 2 3 < 3 q 3 q 2 6 6 q 7 6 6 < 6 3 < 3 3 ",
"c j g g g g p u w w w q 8 q w r d r q 3 = = - ; < 7 7 0 - - 0 i s g g g j g g d f a d i w i i g j x n n M c j c x x c c F b J C ",
"! ! _ ] _ O.J P _ P D D K K K K K K Q C n c x c C Q W n - - 4 r g c h g g g f d i i 0 r y i i r i g j g j g g g g g M D Q I I I ",
"#.O.o.O.;.#.] #.{ ~ { { +.{ { ^ ^ ^ +.{ ^ ^ (  . . . .n * - 1 9 g j g g a f g d f g f r i d d i d j j c k c M M M C M D Q K Q o.",
"#.O.o.! #.#.#.{ ^ {  . .%.%.%. .&. .{ %.{ ( ( &. .[  .~ > = 1 9 l x l l a a a f l g g x j j k k k k c K D J P P Q W W W ! I ..#.",
"#.o.] ! ! ^ +.( o. .( ( { ( { &.,.&.&.+.+.( ^ ( [ 1.3.,.q - < 7 l l t r a a f x g x x x W T T N T C J C D P _ _ T W W ] ) ! ..o.",
"+.O.! ! ! +.o.] ^ ^ ( / ( ( &.,.,.&.,.,.#.&.) ( ,.1.1.~ > - < 4 a a t l f x x x j C n T T W D D W D D D J J _ U W W _ _ o.#.#.o.",
"] ! W W ! ) ! ^ ~ ^ ( (  .( ,.,.,.%.%.%.%.&.( ) ( 1.3.( < > 1 7 f a a f g c C C C N Q ~ T ~ _ _ W T C P G J _ ] O.! W ] #.#.+.] ",
"W P P I ! ! ! ! Q ] ^ { &.&.&.&.,.,.%.%.,. .) ) ( 2.4.,.4 < 7 9 a f l f l c K G I J Q +. .%. .[ ] P U J P P U ] ] W W P ] O.] X.",
"P I K U I I K ! Q D ! +.&.+.&.&.%.,.,.,.%.^ ) ) ( 1.2.) 3 < 7 7 l l x x C D Q ] o.{ #.#.{  . .{ { _ _ P P U U ] ] ' W ! ] ! W _ ",
"K P I I ! I ! ! Q K G ) %.,.&.+.,.,.#.,.,.&.o.) ( :.,.~ 3 < 5 0 x C K G P ^ { ] W  .,. .&.{ +.:.+.] P J U U ! O.] W W ] #.( W D ",
"K P ! ! ! ....! Q I G +.<.:.@.+.%.&.:.,.&.#.) ) ( :.&.Q 2 ; 1 0 x F D I D ! ~ Q ] #.,.%.&.%.%.&.+.] P J U P ! ^ ] ] ] ] W ] P W ",
"I ..O...! ! ! ! ..! b #.<.+.+.+.#.&.+.#.&.,.( ) :.,.&.Q 3 , 5 0 l G C K K I ~ Q ~ { { { O.{ ) o.X.o.^ I K ^ ^ K Q ^ K Q Q Q K Q ",
"_ U _ _ ^ Q ] o...) b ..&.) ) o.&.o.] +.) :.) ( 1.1.&.Q 3 2 5 0 x K K K ! ! ~ ] ' ] { { ] o.#.o.! ! ! _ ( ~ ^ ^ ) Q Q Q Q D _ I ",
"( ] _ W ! I I ! I I c ) :.+.o.#.#.] ) ) ) ) ) ( ,.,.,.Q 3 2 5 0 c K G C W ^ W ] ' ' [ ] ^ o.o.! I I I ! ^ Q ~ ) Q Q D Q I ) ] U ",
"F C W D C Q C I ..! c ! +.Q ) &.+.+.+.+.( ) ( ( ,.,.1.G 4 < 9 r c C C K Q K W ~ T ' ] W _ ! I I I ! ! ^ Q K Q n Q n Q ) ! ~ Q D ",
"G K I _ P G b K I I x ^ ^ I ~ Q ) o.) ) ( ! ) o.,. .1.Q < 4 7 r j K j W Q W ^ Q J _ ..U I J v J ! ! ! W K K C C C x b G G G I C ",
"I Q _ ..P G G G G I G Q ( ^ I Q I ^ ) ) ^ Q Q ! ^ &.,.n 2 4 9 a j j Q K K W I J K U _ _ U D K U I I W D K K K c x c G I J J I G ",
"! _ U J b K I I C K b G o.~ K I Q K F I K ) Q ^ ( ,.( n 3 7 7 i n T T T C W K K U _ _ [ [ U U U _ ! W c G C C c C G J J b J J G ",
"_ _ P b C I G I F C c I ^ Q F F I C C K F G I ) ) ( ,.n 3 4 9 r j j k C C Q J K _ [ _ _ U U ] O.] W P F F C c x F G b b b J Y I ",
"Y Y I G G G G I G G B I ) I F I Q G G I G G I ) ) +.^ n < 5 9 r j Q j T K G C K [ U P P _ _ _ U J D J K G C v c B b b b b J Y U ",
"J I G b J I I I G G c B Q Q I G I G F G G I G G ) ^ ,.n 3 7 7 r W j j K J G C K P J P J P I _ P J v v G C D c B B B z G b I J Y ",
"J J b I I b J I G G b I ~ Q I Q ) F G Q G G ) I ~ ( ( x < 4 7 0 j C n W c x l C M v B B b G v v z c z x z c z z z z z z z b I X.",
"b b b b b B B B B B c G G F C K ) x F I G b G F ~ ~ ( j ; 1 7 7 e r d d f f f s s a i i a s y i y i y y y y y y y y a y 0 y s z ",
"i i a s f s s a a s s a l l g x f i l l g g f l l C x t = = 2 4 7 7 7 0 7 7 0 9 8 y 0 0 0 y 0 8 8 8 0 8 8 8 8 8 9 9 5 6 1 3 5 7 ",
", < < < < : ; - - - ; , 3 1 2 ; - - , < 3 , 3 3 < 3 < ; & O & - - - - - - - - = - - 2 < < ; ; = ; ; ; - = ; - = = * * + % * - ; ",
"6 9 r 9 9 t r t t t t t t t t t t t t t t t t t t t t q q q q q < q q q q 3 ; ; , > 3 7 6 < : - 6 6 1 < : - = = - - = ; : < 3 3 ",
"C K #.o.#.:.o.#.>.<.#.>.@.@.) ) %.) @.@.+.<.<.) ) ,.) ) ) ^ ( ) W ) %.) Q W c j n C Q J v z 8 ; 0 l f s s p g i r y f g k M M k ",
"W U X.=.>.>.....o.+.+.>.^ +.o.&.:.) ( ( :.,.( ) ) %.+.:.) ( &.( :.<.<.( (  .^ ) K ) +.o.P D w - 4 i a g g k k k c v U U P P _ P ",
"U U ..X.=.>.#.I D K P _ ! o.#.:.,.) ( ~ ) ) ) ~ @.&.&.,.) ) ) ,.:.1.<.~ ( ,.&.( o.) :.+.o.P g - ; 0 p g k C N _ J U J J P U _ U ",
"_ o.O.X.X.X.#.K F G G G K _ o.+.) I Q n G Q G I I Q ) ( ) ( ( ) ,.1.) ~ ) o.) ) #.&.o.+.o.W k : ; 8 p s k k k v J U J J v J U U ",
"] X.#.#.O.Y ..I G K G G I K ! ! Q F C C C Q n Q K C I C I C C Q &.) Q C Q G F G ^ ) ! ) ! ! c ; = 6 8 s h h v U U b U U U U U U ",
"#.X.#.#.O.X.) Q I ! G F K K Q G C n Q C F F C G F C C n n n N Q Q n n C G K C x c I I I I ) C < - 3 7 d z U U U U U X...#.#.X...",
"#.#.>.>.O.! I o.! Q I Q I Q K F C K Q Q F C G K C C n C C n Q W K n n Q Q C x x c K Q D ! ! C 3 # < 8 h h v v U X.=.X.Y Y #.X.#.",
"#.X.:.#.O.o.) ! ! K F Y I ) I F G Q K C C C G Q C T n C C D C W n G I ( C c x x g c C K o.W C 3 * : 6 s z v J ! X.-.X.#.o.:.X.-.",
"o.#.+.! W ! ) Q I I G K K G F I D n n n Q Q n Q C n N F D C c C ( ) G G C x c n c l C J ) ) C 6 # : 6 u s v X.#.-.-.-.-.-.-.O.-.",
"K { +.! G Q ~ ) ^ Q ) K C C C F Q n n ~ ( Q K n n n C Q I C Q ( :.! D D C k c c c k c W ) ^ W q # ; : p d J o.+.) I ^ ) o.I ) o.",
"o.) ) P I ~ ) ) ! Q I F C G K D T Q ~ ( ~ Q W n C C C Q I ! o.%.^ _ W D c j k k h c D U &.( Q q # ; 8 g k D W ( ) K K ) o.) ) ! ",
") ) Q I Q ) ) ~ G G Q F C G Q Q K Q ( ~ Q G Q C C C Q Q ! ^ %.#.! _ U J B k c k z k K I :.&.^ q # 3 8 g j k C W Q ) ^ ) ) ^ ) I ",
"( ) K Q F K Q I C F ) G K K C C n Q ) Q n K Q C Q C C Q K ] #.O._ _ U J U b k h g l J I ) +.I q = 3 8 d g g k C I Q Q ) K C Q G ",
"K ^ C C Q ! K F C W K K ! _ Q C Q K Q K n K Q n P ! I D W ^ =.O._ _ _ J v v M h h k J I o.) K 4 + 6 8 p g d j j C C n C C x C C ",
"K n c n C C G C D ~ C C P I C F n Q n Q Q Q K C D ! W D Q ] O.! _ ] U J v v c v h k D _ o.+.C 3 O : 8 d d d d g f g j j j n c C ",
"C C c C C C F C C C C C P C c c n G n n K Q C K P X._ I o.] P K U X.U J b B c v v c D _ +.! c ; o < 6 d d d g j j f j f j j j n ",
"c C C D G C D c D D C C K C D D I n C Q Q K n Q I ! I J ! O.J I J J b b v M v v v c P _ o.P g # O : w d u i d d d d d d j j x j ",
"k c n C C C C C Q n C n C C C Q C C C C F n Q n K J G C U #.P W b C B v c v M M c c D P I P a O # < 7 y u p p d d u u p d g j c ",
"j n h M C C C c n T n n C n n T Q C C F n n n G C v c b I J P v M B M N B v c k h c D _ P D w o # , 6 8 8 u w u u u w p w i g j ",
"g k j c c j x x j j j n C j j j n x j n n x n C C B C J J C J v c v N c c M v g g k M N c N 3 o - : : : : : : 6 6 6 6 : : 8 w 8 ",
"u d j j j j j g d j j j j f f f j j g j g t f g h g f B c c c B z z h h h c h h g d d g j g < O ; : ; > > : : : : : : : : : 6 q ",
"6 5 0 i i r 8 8 8 w q w w 7 w q 9 e r t r r 7 q 8 8 i p d i i i i u w i p u w i 8 8 8 8 8 8 - O ; : ; ; > : : : 3 : < 2 < > < < ",
"= - : < 3 3 : ; ; ; ; > - - ; ; , , 2 1 1 1 3 2 3 < > 8 4 4 3 3 3 : : : : ; = - = - - = + # O O + + O + % = * * * * * * * * * # ",
"O - = = * = * * = = * * * % % * - # @ @ & & * * % % + + & & # # % O % $ $ $   . X O % * - : 3 > - < : < : > > > > > < < > 2 - + ",
"- 4 8 f f j g g g j j n j j j j t l t t e r r q w r w w 9 9 r 0 d i d g d q ; 4 i d f g j N D k j g c c N k k k M D D K c a y - ",
"- 1 9 s z c x x l c C c n c c c G z z z l G G z C x l f l t t l g M G P I c < d ~ ~ T _ U [ [ J P P U [ _ T _ T P _ ! ! P s 7 - ",
"- 1 9 l z b c x x B x l j x G c z G G z x G x x n x x l l x l r f g b G ] c < d ~ _ [ ] ]  ._ U W _ [ ] [ _ _ _ I _ ! J ! D 1 # ",
"- 5 9 l c b C B c B c x l l c l t z z z G x G x x x x a t l t l y f G G D c > w W T D T _ [ U b P U [ [ [ U D U _ _ C z c ! r O ",
", 7 9 i c G G b C C C c x x x x x G x G G G x l x x l l l t l r i g v C n j ; w N N N k c B h c c N U U D c g k M c z l l l f * ",
"2 9 9 f l B B b G G J J b x B x x G G G G G x l l l l l l f f a f l c C c g - 7 h g g g z h g l h h k h z z s h g g g z l z y = ",
"; 9 9 f x x b b J I I G G x x x x G z G G x G x x l f l f l a l l l c P P g = < g g s g c g g s h h k h h h s s s h z g s s 0 # ",
"- 9 4 r x l B G B C b b G x c x z z l l l z G G x n x x x x l l f l c P ~ x - 3 s s s g h g g g s h h h h s s s g h h z g g 0 # ",
"- 0 9 7 l l c G l c x c G G n c x G G G G G G G n n n n n n c x f a c B D x - ; i p i g g g s g p h h h s s p s g h s y s a 3 O ",
"- 9 r 1 l l x c x x n n C n n c G z G G G G G c c n n x C c l g r 0 f f j g = ; i i i s g s a g d h g s p p s h h z s y a i , @ ",
"- < r 2 1 t a a l t l x l x x x z z z x x x l x l l t l f f r 9 9 7 0 r f i - - 8 i i a i i y i p y p y y y y y y y y a y y 1 # ",
"# , r ,   1 5 5 9 9 9 9 9 0 r 0 9 r t 0 0 0 9 0 9 9 9 0 r 0 9 1 7 0 0 4 7 0 - , 6 7 8 0 9 0 9 0 0 9 0 y 9 y 9 8 y y y 0 0 7 1 * ",
"# , 9 ,   - < , 1 2 , , 1 1 1 1 9 9 9 1 9 9 9 1 1 1 1 9 4 2 - - - = ; - - - * = < 2 , : 3 1 3 < : - - ; ; ; ; - - - - - - = = O "
};
