/* XPM */
static char *result[] = {
/* columns rows colors chars-per-pixel */
"64 64 191 2 ",
"   c #0A2A65",
".  c #0C2E69",
"X  c #0E326D",
"o  c #16346A",
"O  c #1C376B",
"+  c #1E396D",
"@  c #0E3572",
"#  c #0F3877",
"$  c #0F3978",
"%  c #103672",
"&  c #123975",
"*  c #1A3C74",
"=  c #133D7A",
"-  c #15407E",
";  c #1B417C",
":  c #22447A",
">  c #25487E",
",  c #164382",
"<  c #194685",
"1  c #1B4886",
"2  c #174788",
"3  c #1B4B8B",
"4  c #1F508F",
"5  c #1C4F90",
"6  c #1E5090",
"7  c #234983",
"8  c #294C83",
"9  c #214E8D",
"0  c #2B5087",
"q  c #23518F",
"w  c #2D558D",
"e  c #395786",
"r  c #225393",
"t  c #2A5692",
"y  c #2A5995",
"u  c #2E5E9B",
"i  c #335B93",
"p  c #395F95",
"a  c #335F99",
"s  c #2F609D",
"d  c #3B6197",
"f  c #33639E",
"g  c #3E6399",
"h  c #3465A2",
"j  c #3768A4",
"k  c #396BA6",
"l  c #376BA8",
"z  c #3B6EA9",
"x  c #3E71AC",
"c  c #435E89",
"v  c #45618E",
"b  c #4E668E",
"n  c #586C8A",
"m  c #42669A",
"M  c #46699C",
"N  c #496C9D",
"B  c #536B92",
"V  c #54709A",
"C  c #647796",
"Z  c #667A9A",
"A  c #687E9E",
"S  c #446FA5",
"D  c #4173AE",
"F  c #4974A9",
"G  c #4D79AD",
"H  c #5979AA",
"J  c #4476B0",
"K  c #4679B3",
"L  c #4A7CB5",
"P  c #4C7FB8",
"I  c #5276B0",
"U  c #527CB3",
"Y  c #527FBB",
"T  c #587DBA",
"R  c #677EAA",
"E  c #7B8798",
"W  c #4E81BA",
"Q  c #5581B5",
"!  c #5F85B5",
"~  c #5385BD",
"^  c #5A85BB",
"/  c #5688BF",
"(  c #5D8ABC",
")  c #6B81A2",
"_  c #6B84A9",
"`  c #6E86A9",
"'  c #7587A5",
"]  c #7788A5",
"[  c #7386AB",
"{  c #718AAE",
"}  c #7A8CAA",
"|  c #7C90AF",
" . c #6686B7",
".. c #6D91BD",
"X. c #7D93B3",
"o. c #7E97BB",
"O. c #568AC1",
"+. c #5B8CC2",
"@. c #5E90C6",
"#. c #5E94C9",
"$. c #618EC0",
"%. c #788EC3",
"&. c #6392C6",
"*. c #6995C6",
"=. c #6595C9",
"-. c #6897C9",
";. c #6599CD",
":. c #6C9BCC",
">. c #7C92C4",
",. c #7699C3",
"<. c #719ECE",
"1. c #6A9ED0",
"2. c #709FD0",
"3. c #73A0CF",
"4. c #74A2D1",
"5. c #7AA5D3",
"6. c #7EA9D5",
"7. c #8996AE",
"8. c #8196B6",
"9. c #8998B2",
"0. c #839BBC",
"q. c #8CA0BC",
"w. c #99A4B7",
"e. c #A6ACB7",
"r. c #ADB1B9",
"t. c #8295C5",
"y. c #839DC2",
"u. c #889FC5",
"i. c #8A9BCA",
"p. c #919FC5",
"a. c #87A0C3",
"s. c #8AA2C7",
"d. c #8DA5C9",
"f. c #8EA9CE",
"g. c #97A9C7",
"h. c #90A7CA",
"j. c #95AACB",
"k. c #9BADCC",
"l. c #9CB1CA",
"z. c #83ACD6",
"x. c #8BAED4",
"c. c #92ADD1",
"v. c #8CB1D7",
"b. c #9BB4D2",
"n. c #93B5D9",
"m. c #98B7DA",
"M. c #9CBADB",
"N. c #ACB5C9",
"B. c #A3BEDC",
"V. c #B4BED4",
"C. c #A7C0DD",
"Z. c #ACC3DE",
"A. c #BAC6DA",
"S. c #BECDE1",
"D. c #C2C6CE",
"F. c #C9C9CA",
"G. c #C4C7D3",
"H. c #CCCED5",
"J. c #C2CCDE",
"K. c #CDD0D7",
"L. c #CED2D9",
"P. c #D2D5DC",
"I. c #D4D8DF",
"U. c #DCDBDC",
"Y. c #E1DFDF",
"T. c #E2E0DF",
"R. c #C4CCE1",
"E. c #D0D3E4",
"W. c #D5DAE2",
"Q. c #D9DDE4",
"!. c #DBE0E7",
"~. c #D7E0EC",
"^. c #DEE3EA",
"/. c #E4E3E2",
"(. c #E8E7E6",
"). c #EAE8E6",
"_. c #E1E5EC",
"`. c #E3E8EF",
"'. c #ECEBEB",
"]. c #F0EFEF",
"[. c #F2F0EF",
"{. c #E6EBF2",
"}. c #E9EEF4",
"|. c #F0EFF0",
" X c #EDF1F6",
".X c #F4F3F3",
"XX c #F8F7F7",
"oX c #F9F8F7",
"OX c #F7F6F8",
"+X c #F8F7FA",
"@X c #FFFFFF",
/* pixels */
"@X@X@X@X@X@X@X@X@X@X@X@X@X@X@X@X@X@X@X@X@X@X@X@X@X@X@X@X@X@X@X@X@X@X@X@X@X@X@X@X@X@X@X@X@X@X@X@X@X@X@X@X@X@X@X@X@X@X@X@X@X@X@X@X",
"@X@X@X@X@X@X@X@X@X@X@X@X@X@X@X@X@X@X@X@X@X@X@X@X@X@X@X@X@X@X@X@X@X@X@X@X@X@X@X@X@X@X@X@X@X@X@X@X@X@X@X@X@X@X@X@X@X@X@X@X@X@X@X@X",
"@X@X@XR.d.h.h.h.j.j.j.g.j.k.g.k.k.k.g.k.k.k.k.k.k.k.k.k.k.k.k.k.k.N.k.k.k.k.k.k.j.k.k.g.k.k.g.j.k.g.j.j.j.j.j.j.j.j.j.d.J.@X@X@X",
"@X@X@Xj.:.5.6.6.z.z.z.z.v.v.v.n.n.m.M.M.M.B.B.B.C.C.Z.Z.Z.Z.A.Z.Z.Z.Z.Z.Z.B.Z.B.B.B.B.B.m.m.m.n.v.v.v.v.z.z.z.6.5.5.4.:.h.@X@X@X",
"@X@X@Xh.1.4.2.4.4.4.5.5.5.6.5.6.z.z.z.z.z.x.z.z.z.z.z.z.z.x.x.z.x.z.z.z.z.z.z.z.z.z.z.z.z.z.z.z.6.5.5.5.5.4.4.2.4.2.4.1.h.@X@X@X",
"@X@X@Xh.;.1.2.2.4.2.2.2.4.4.4.4.5.5.<.4.5.2.5.z.5.6.6.6.6.5.5.6.5.5.6.6.6.5.5.5.5.5.2.5.2.2.2.2.4.4.2.4.2.2.2.2.1.1.:.1.h.@X@X@X",
"@X@X@Xd.;.:.:.:.2.1.2.2.2.2.4.4.4.2.2.5.2.2.5.2.4.4.5.4.4.4.5.5.4.5.5.5.4.4.5.4.5.5.2.5.2.2.2.2.2.2.:.2.1.:.1.:.:.:.:.;.h.@X@X@X",
"@X@X@Xd.;.;.;.:.:.:.:.:.:.:.:.2.<.<.<.2.2.2.<.<.4.4.3.4.4.4.3.4.3.4.3.4.4.4.<.4.<.<.<.<.2.<.2.2.2.:.:.:.:.:.:.=.=.=.:.;.d.@X@X@X",
"@X@X@Xd.#.=.=.=.=.:.:.:.:.:.:.:.:.2.:.2.-.2.<.<.<.<.<.<.<.<.<.<.<.<.<.<.:.<.<.:.<.:.<.:.2.-.2.:.:.:.:.;.:.=.;.=.=.;.=.=.f.@X@X@X",
"@X@X@Xd.#.=.=.=.=.&.=.=.=.=.:.=.-.-.-.:.:.-.:.:.:.:.:.-.:.:.:.:.:.<.:.:.:.:.-.:.:.:.-.:.-.=.=.=.=.=.=.=.&.&.-.&.#.&.=.;.d.@X@X@X",
"@X@X@Xd.#.#.@.@.#.&.&.&.&.=.&.&.=.=.=.=.-.=.:.=.-.-.-.-.-.-.;.-.-.:.*.-.-.*.-.-.-.*.*.;.=.=.=.&.&.=.&.&.&.#.&.#.@.@.@.#.d.@X@X@X",
"@X@X@Xd.@.@.@.@.+.@.@.@.@.@.&.&.&.&.&.&.*.&.&.&.*.*.=.=.*.*.*.*.&.&.*.*.=.&.=.*.&.=.&.*.&.&.&.&.@.&.&.+.@.@.+.+.+.+.@.#.h.@X@X@X",
"@X@X@Xd.O.@.O.+.+.+.+.+.+.+.+.@.$.$.@.+.O.P Y Y ~ +.&.&.&.&.&.&.&.&.&.&.&.@.&.$.@.~ Y P O.+.$.+.+.+.+.+.+.+.+.+.O.O.O.#.d.@X@X@X",
"@X@X@Xd.@.O.O.O.O.O.O.O.+.+.+.+.+.+.+.T %.i.i.i.>.T +.+.+.+.+.+.+.+.$.+.+.+.+.+.+.%.i.i.t.^ +.O.+.+.+.O.O.O.O.O.O.O.O.@.d.@X@X@X",
"@X@X@Xd.O.O.O.~ ^ O.O.O.^ O.O.O.O.^ O.S.+X@X@X@X+XR. .O.( +.+.( +.+.O.+.+.+.+.+.*.{.@X@X+Xc.O.O.~ O.O.O.O.~ ~ O.~ ~ ~ @.d.@X@X@X",
"@X@X@Xd.O.~ P ~ ~ Y ~ ~ ~ ~ ~ ~ O.~ $.{.@X@X@X@X@X@XV.Y / / ~ ~ ~ ( ~ ~ ~ ^ ~ ~ *. X@X@X+Xc.Y O.~ ~ Y ~ ~ ~ W ~ W W ~ +.d.@X@X@X",
"@X@X@Xd.O.W W W W W ~ W W ~ ~ W ~ ~ $. X@X@X@X@X@XoX X>.W ~ ~ ~ Q ~ ~ ~ Q ~ ~ ~ &.}.@X@X+Xx.W W ~ W ~ P P P ~ P W P P O.d.@X@X@X",
"@X@X@Xd.O.W L L L P L P P P P P P L $.}.@X+X@X+X@X@X@XR.U W Q Y W W W Q W W W W  . XoX@X+Xx.L P P P P P P L L L P P L O.d.@X@X@X",
"@X@X@Xd.O.L L L L L L L L L L L L L ( }.@X@X+XoX@XoX@X.Xt.K P P W K W L L W L L +.}.@X+X+Xd.L L L L L L K L L L L K L O.d.@X@X@X",
"@X@X@Xd.W L K J J K K K J L J L J K ( }.+XoX@X~. XoX+X@XE.I K L L K K K K K L K ( }.@X+XOXd.K L K J L J K K J J K K K O.d.@X@X@X",
"@X@X@Xd.W x x K D J J J D K D K J J ( `.oX@X@XC.J.@XoX@X+Xp.D K K G K K J G J J ~ {.oXoXOXs.x K J J J J J J J J J J J O.d.@X@X@X",
"@X@X@Xd.O.x x x D D D D D D D D D D Q `.oXoXoXb.,. XoXoX+XQ.H x D J D D D D D D Q {.@XoXOXs.x x D D D D D D D D x x x W d.@X@X@X",
"@X@X@Xs.W x x x D z z x D x x x x x Q `.@XoXoXb.D A.oXoX+X+Xg.S D D x D D D x x Q `.oX+X.Xa.x x z D z D z z D z x x x W d.@X@X@X",
"@X@X@Xd.W x x x z z z z z z x z z z U `.oXoXoXb.k .. XoX+XoX_.H k z z z z z z k Q `.+XoX.Xy.k z z z z z z z z z x k z W d.@X@X@X",
"@X@X@Xd.W l j l j k k k k k k k k k G _.XXXXoXl.l x C.oXXXXXoXN.g x k k k k z k L (.oXXX.Xy.j k k k k k k j l k l l l W s.@X@X@X",
"@X@X@Xd.W j j j j j j j j j j j j j G _.XXXXoXc.f j ! ^.oX.X.X'._ h k h k h j j F _.XX.X.Xo.h h j j j j j j j j j j j W d.@X@X@X",
"@X@X@Xd.L h h h j j f f h h h h j f F _..X.XoXj.f f f l.[..X.XoXV.g h h h h h h F _..X.X Xo.f h j f f j f j h h h h h L d.@X@X@X",
"@X@X@Xd.L h s h f f f f s h h h f f F ^..X.XXXg.s f s Q !..X.X.X'.[ u h f f f f F _..X.X].o.f f f f f f f f f f f f h K d.@X@X@X",
"@X@X@Xd.J s s s s s s s s s s s s s S ^..X.X.Xg.s s s s a.|.[.[..XG.d a a u u u S ^..X.X'.X.u s s s s s s s s s s s s K d.@X@X@X",
"@X@X@Xd.x r 6 6 r 4 6 6 6 6 6 6 r 6 g !..X[..Xa.4 4 6 6 f S.[.[..X].} r r r r 6 f !.[..X'...5 6 r r r 4 6 6 r 6 6 r 6 x d.@X@X@X",
"@X@X@Xd.z 6 6 6 4 4 4 4 6 6 4 6 4 6 f Q.[.[..Xa.3 4 5 4 4 _ {.[.].[.H.e 5 6 6 6 d Q.[..X'.{ 5 6 6 4 4 4 6 6 6 6 6 6 r z d.@X@X@X",
"@X@X@Xd.z 6 6 3 4 3 4 4 4 4 3 4 3 3 s Q.[.[.[.0.3 4 5 4 4 t Z.[.].|.].7.3 3 5 5 s Q.[. X'.{ 3 4 3 4 3 4 4 6 3 6 3 4 6 l d.@X@X@X",
"@X@X@Xs.z 4 3 5 3 3 3 3 3 3 3 3 3 3 s !.[.[.[.q.2 3 3 3 3 3 H !.].].].U.c 2 3 3 p W.[..X).{ 3 3 3 3 3 3 3 3 3 3 3 3 3 k d.@X@X@X",
"@X@X@Xd.z 3 2 2 3 3 3 3 3 3 3 3 3 < i I.'.'.[.0.2 3 3 3 3 1 9 N.].'.'.].w.> 3 2 i Q.'.'.).` 2 3 3 3 3 3 3 3 3 3 3 3 3 l d.@X@X@X",
"@X@X@Xd.l 1 1 1 1 1 3 1 3 1 3 < 1 1 i I.'.'.].8.2 1 1 1 2 1 < N W.].).'.U.b 2 2 y I.'.'.(.` 2 1 1 1 < 3 3 1 1 1 2 < 3 j d.@X@X@X",
"@X@X@Xi.l 1 1 < 1 1 < < < < < 1 2 < y W.'.'.].0., 2 < 2 1 2 < 3 0.].'.'.'.e.> 2 i W.'.'.(._ 2 2 < < < 2 1 < < < 2 < 1 j d.@X@X@X",
"@X@X@Xd.j < < < , 2 < < 1 < , < < < w I.'.(.'.8., 2 , , < < < , p K.'.).).Q.n - w I.'.).(.) , 2 2 , < < , < < < < < < h d.@X@X@X",
"@X@X@Xd.h , , , , , , , , , , , - - w I.'.(.'.8., , , , , , , , , | (.).).).r.: w P.'.)./.R - , < , < , , , < < , , < h a.@X@X@X",
"@X@X@Xs.h , , , , , , , - , , , - - w P.(.(.'.X.- - , , , - , , - w A.).(.(./.n 0 P.).(./.A , , - , - , - - , - , , < f d.@X@X@X",
"@X@X@Xs.h - = , = = , = - - - - - - w L.(.(.'.X.= - - - - , = - - - ) !.(.(.).r.e L.(.(./.A = = - - - - - - - - - = , s s.@X@X@X",
"@X@X@Xs.s - = = = = = = = - = = - & 0 L.)./.).| = = = = = - = = = = 1 N.(.(./.U.E H.(.(.T.A = = = = = = - = = = = = - f s.@X@X@X",
"@X@X@Xs.s = = = = = = = = = = = - = 0 K./.(.).| # = = = = = = = = = & V U././.(.F.U.(./.Y.Z = = = = = = = = = = = = = u s.@X@X@X",
"@X@X@Xd.u = = = = = = = = = = = & $ 0 K././.).} # = & = = = = = = = & ; w.(././././././.Y.Z # = = = & = = = = & = = & u s.@X@X@X",
"@X@X@Xs.u & & & & & & & & & & & & # > K././.).} # & & & & & & & & & & & v K./././.T.!./.Y.Z # & = & = & & & & = = & & u d.@X@X@X",
"@X@X@Xa.y & & & % & & & & & & & & & > H.T././.} @ @ % & & & & # & & & & & 9./././.T./.T.Y.C @ % % & & % & % & & & & & y s.@X@X@X",
"@X@X@Xd.y & % % % % @ % @ % @ % o % > H./.T./.} @ @ # % @ % @ @ @ @ @ # @ e D././.Y.T.T.Y.C @ % % % % % % % % % @ @ & y a.@X@X@X",
"@X@X@Xs.y @ % % @ @ % % % % @ % @ @ > H.T.T.T.} @ @ @ @ % % @ @ % % % @ @ @ ) U.Y.Y.Y.T.U.C X % @ @ % % @ @ % % % @ # y s.@X@X@X",
"@X@X@Xs.r @ o X @ o X % X X X @ X X : D./.T.T.' X X X @ o X X X X % X o X X * 7.I.T.T./.H.c X X X @ o % X @ o X % X o r d.@X@X@X",
"@X@X@Xs.r o X X X X X X X X X X X X % b ] ] ) 8 X X X X X X X X X X X X X X @ & B [ ] ] b % X X X X X X X X X X X X o r s.@X@X@X",
"@X@X@Xd.r o X X   X X X X   X X X X . . . . . . . X X X X X X X   X X X   X X X . . .   . X . X X . X X X X X X X X X r s.@X@X@X",
"@X@X@Xa.q . . . X   X X   X X   . . . . . . . . . . . . X X X . X   X X X   . . . . . . . . . . . . . . X   X X   X X r s.@X@X@X",
"@X@X@Xs.q . . .   X   X . . . . . . .     . . . . . . .   .       X   X   X .   .   . . . . . . . . . .   X     X     4 d.@X@X@X",
"@X@X@Xs.9     .           X   .       .           .   .         . .   .             . .       .   .           . .   . 9 u.@X@X@X",
"@X@X@Xa.q                                                 .                       .                                   9 a.@X@X@X",
"@X@X@Xs.3                                                                           .                                 9 s.@X@X@X",
"@X@X@Xs.3                                                                                                             3 a.@X@X@X",
"@X@X@Xu.7                                                                                                             7 u.@X@X@X",
"@X@X@Xs.0 o o o o o o o o o o o o o o o o o O o o o o O o o o O o . o o o o o o o o o o o o o o o o o o o o o o o o o r s.@X@X@X",
"@X@X@Xu.t O O O o + + + O O O O O + O O O O O O O O O + O + + + + + + + + + O O + + + + O + O O O O O O O O O O O O O w s.@X@X@X",
"@X@X@Xs.f i y i y i i p p p p d d m d m m m M M M b M N N N N M N N N N M M M b m m m m v d m p v p p i p i i i w i w f s.@X@X@X",
"@X@X@XJ.u.s.d.s.s.s.s.s.q.d.s.d.s.d.d.d.d.d.d.d.h.d.d.h.d.h.d.h.h.d.h.d.h.s.h.d.d.d.d.d.d.d.d.s.s.s.s.s.s.d.s.s.d.s.s.u.J.@X@X@X",
"@X@X@X@X@X@X@X@X@X@X@X@X@X@X@X@X@X@X@X@X@X@X@X@X@X@X@X@X@X@X@X@X@X@X@X@X@X@X@X@X@X@X@X@X@X@X@X@X@X@X@X@X@X@X@X@X@X@X@X@X@X@X@X@X",
"@X@X@X@X@X@X@X@X@X@X@X@X@X@X@X@X@X@X@X@X@X@X@X@X@X@X@X@X@X@X@X@X@X@X@X@X@X@X@X@X@X@X@X@X@X@X@X@X@X@X@X@X@X@X@X@X@X@X@X@X@X@X@X@X",
"@X@X@X@X@X@X@X@X@X@X@X@X@X@X@X@X@X@X@X@X@X@X@X@X@X@X@X@X@X@X@X@X@X@X@X@X@X@X@X@X@X@X@X@X@X@X@X@X@X@X@X@X@X@X@X@X@X@X@X@X@X@X@X@X"
};
