/* XPM */
static char *result[] = {
/* columns rows colors chars-per-pixel */
"64 64 150 2 ",
"   c #340101",
".  c #3B0101",
"X  c #370808",
"o  c #3E0909",
"O  c #3D1111",
"+  c #430202",
"@  c #490303",
"#  c #440C0C",
"$  c #4C0B0B",
"%  c #510C0C",
"&  c #451313",
"*  c #4B1414",
"=  c #4D1C1C",
"-  c #531414",
";  c #591616",
":  c #521C1C",
">  c #5D1A1A",
",  c #621E1D",
"<  c #63211F",
"1  c #4F2020",
"2  c #532424",
"3  c #5B2424",
"4  c #552827",
"5  c #562A2A",
"6  c #5A2E2E",
"7  c #5B302F",
"8  c #563232",
"9  c #5B3131",
"0  c #662222",
"q  c #6A2525",
"w  c #652826",
"e  c #6F2826",
"r  c #642B2B",
"t  c #6D2A2A",
"y  c #722927",
"u  c #722D2D",
"i  c #6F312F",
"p  c #79302E",
"a  c #732F30",
"s  c #653535",
"d  c #6C3636",
"f  c #623939",
"g  c #6B3C3C",
"h  c #753232",
"j  c #793636",
"k  c #733B3B",
"l  c #7D3B3B",
"z  c #7D413F",
"x  c #674242",
"c  c #6C4343",
"v  c #6D4949",
"b  c #744242",
"n  c #7E4342",
"m  c #724C4C",
"M  c #7B4B4B",
"N  c #755454",
"B  c #7C5555",
"V  c #7A5A5A",
"C  c #7C6060",
"Z  c #7D6E6E",
"A  c #813937",
"S  c #823D3D",
"D  c #893E3D",
"F  c #8A413F",
"G  c #823F40",
"H  c #844343",
"J  c #8C4543",
"K  c #814847",
"L  c #884748",
"P  c #844B4A",
"I  c #8A4B4B",
"U  c #914745",
"Y  c #944C4B",
"T  c #86514F",
"R  c #8D504F",
"E  c #97504F",
"W  c #8E4F50",
"Q  c #865352",
"!  c #8E5151",
"~  c #845A5A",
"^  c #915555",
"/  c #995352",
"(  c #935758",
")  c #955B5B",
"_  c #995E5E",
"`  c #A15C5A",
"'  c #97605F",
"]  c #856363",
"[  c #896464",
"{  c #856969",
"}  c #8B6D6D",
"|  c #9A6262",
" . c #916D6D",
".. c #9C6B6B",
"X. c #9E706F",
"o. c #837070",
"O. c #8D7272",
"+. c #957373",
"@. c #9D7373",
"#. c #957B7B",
"$. c #9E7878",
"%. c #A06766",
"&. c #A36B6B",
"*. c #A47373",
"=. c #A97676",
"-. c #A37C7C",
";. c #AD7C7C",
":. c #978484",
">. c #9C8282",
",. c #9E8B8B",
"<. c #A58382",
"1. c #AB8383",
"2. c #AB8887",
"3. c #A38A8A",
"4. c #AC8B8A",
"5. c #B28585",
"6. c #B58B8B",
"7. c #A59494",
"8. c #AB9494",
"9. c #AB9999",
"0. c #B19595",
"q. c #B49C9C",
"w. c #AEA0A0",
"e. c #B3A3A3",
"r. c #B5ABAB",
"t. c #BBABAB",
"y. c #BBB2B2",
"u. c #C1A9A9",
"i. c #C1B5B5",
"p. c #C5BBBB",
"a. c #CBBDBD",
"s. c #C3C1C1",
"d. c #CBC3C3",
"f. c #CFC8C8",
"g. c #D3CCCC",
"h. c #D8CECE",
"j. c #D6D2D2",
"k. c #DBD5D5",
"l. c #DCDBDB",
"z. c #E1DEDE",
"x. c #DFE0E0",
"c. c #E5E3E3",
"v. c #E8E4E4",
"b. c #ECEBEB",
"n. c #F0EFEF",
"m. c #EFF0F0",
"M. c #F4F3F3",
"N. c #F8F7F7",
"B. c #F7F8F8",
"V. c #FFFFFF",
/* pixels */
"V.V.V.V.V.V.V.V.V.V.V.V.V.V.V.V.V.V.V.V.V.V.V.V.V.V.V.V.V.V.V.V.V.V.V.V.V.V.V.V.V.V.V.V.V.V.V.V.V.V.V.V.V.V.V.V.V.V.V.V.V.V.V.V.",
"V.V.V.V.V.V.V.V.V.V.V.V.V.V.V.V.V.V.V.V.V.V.V.V.V.V.V.V.V.V.V.V.V.V.V.V.V.V.V.V.V.V.V.V.V.V.V.V.V.V.V.V.V.V.V.V.V.V.V.V.V.V.V.V.",
"V.V.V.M.c.c.v.c.c.c.v.v.c.c.c.v.v.v.v.v.c.v.v.c.v.v.c.v.c.c.c.c.c.c.v.c.v.c.c.v.c.c.c.v.c.v.v.c.v.c.c.v.c.c.v.v.c.c.c.c.M.V.V.V.",
"V.V.V.q.! _ _ | ........X.@.*.*.*.-.-.-.<.<.<.1.1.3.4.4.4.8.4.8.8.4.4.4.4.4.3.1.1.<.<.<.-.-.-.*.*.*.@.........| | _ _ ! 0.V.V.V.",
"V.V.V.0.` _ %.%.%.%.&.&.*.=.=.=.;.;.;.5.5.1.5.1.6.5.6.6.6.6.6.6.6.6.6.6.6.6.5.5.1.5.;.;.;.=.=.=.=.*.*.&.&.&.| %.| _ _ ` 6.V.V.V.",
"V.V.V.4.Y Y W ^ ^ ^ ( ^ ( ( ( ( ) ) ) ) ) _ _ _ | | ' | ' ' | ' | | | | ' ' ' ' _ _ _ ) _ _ ) ) ) ^ ^ ^ ^ ^ ^ ! W Y I / 4.V.V.V.",
"V.V.V.4.Y I W I Y ! ^ ^ ^ ^ ( ( ( ( ( ) ) ) ) _ ) _ _ ) _ ) _ ) ) _ ) ) ) ) ) ) _ ) ) ) ) ( ^ ^ ^ ^ ^ ! I ^ I Y I I I / 4.V.V.V.",
"V.V.V.4.Y I I I I I R R R R E ^ ^ ^ ^ ^ ( ( ) ) ) ^ ) ) ) ) ) ) ) ) ) ( ) ) ) ) ^ ^ ^ ^ ^ ^ ^ ^ ^ I I E I I I I J I I / 4.V.V.V.",
"V.V.V.4.Y L L L I I I I I I I I W ! ! ! ^ ! ^ ! ^ ^ ^ ^ ^ ( ^ ^ ( ^ ^ ^ ^ ^ ! ! ^ ! ! ^ ! ! I ! I I I I I L I L L L H Y 4.V.V.V.",
"V.V.V.4.Y H H H L L I L I I I I I I I W I ! I ! W ! ! ! ! ! ! ! W ^ ! W ! ! ! ! ! I ! I I I I I I I L L L L H H H H H Y 4.V.V.V.",
"V.V.V.4.U G H H H H H H L L I I L I I P I I I I I I I I W T I W I I I I I I I I I P I I P L L L L L L H H H H G S H S Y 4.V.V.V.",
"V.V.V.6.U S S G S H G H F H H H H L H L P L L L I P I L L P P L I L P I L P L L L L H L L H H H H H G H G S G G S A l Y 4.V.V.V.",
"V.V.V.4.U l A l l G l S l n H G H H H H H H H H H H H H H H H H H L H H H H H H H H H H G H H H S S S S G S l S l l l U 6.V.V.V.",
"V.V.V.4.U j j l l l l l l l l l l S l G l G G H G H H n G n H H H S G n n H n G H l H l l l l l l l l l A j j j j j j U 4.V.V.V.",
"V.V.V.4.U h j j j j j l j l l l l l l l l l l l l l l l l z l l l l l l l l l l l l l l l l l l l j l j j A j j j h j J 4.V.V.V.",
"V.V.V.4.J h h h h j h j j j j j j j j k l l l l l j l l l l l l l l l l l l l l l j l j j j j j j j j j h h j h h h j J 4.V.V.V.",
"V.V.V.4.F h u h a a h a h h h h h j h j h j h j j j j j j j k j j j k j h k j h j h j h j h h h h h h h a a a a a u p G 6.V.V.V.",
"V.V.V.4.F u u u u u u a h u a a a h h h h h h h h h h h h d h h a h a h h h h a h h h a a h a a u u u u u u u u u u p G 6.V.V.V.",
"V.V.V.4.D t y t t t t 6 7 8 8 r u u t a t h t h h a a h u r 8 8 8 9 a a a a a a t a a a a t a t 6 8 8 8 w u t t e t e G 4.V.V.V.",
"V.V.V.4.D t t t t e k p.x.x.k.} q u t u t t t t t t t t t ,.l.x.x.t.d y t u u t t t t u t t t t 7.l.l.l.+.q e t t q t D 4.V.V.V.",
"V.V.V.4.D q q q e q j z.V.B.V.t.t t t q t t q t t t t q k k.V.V.V.M.] q t t q t t t t q t q q b x.V.V.V.;.0 e e q q e S 4.V.V.V.",
"V.V.V.4.A q 0 q q 0 t u.V.N.V.k.g 0 q q t w q q q q q q ~ b.V.B.B.V.3.0 q q q q q q q w 0 q q [ n.V.N.b.Q 0 0 0 q 0 q A 4.V.V.V.",
"V.V.V.4.D 0 0 0 0 0 0 $.N.B.V.n.~ 0 0 0 q 0 0 0 0 0 0 0 >.B.B.B.V.B.p.t 0 0 0 0 0 0 0 q 0 0 0 4.B.B.V.g.a 0 0 0 0 0 0 D 4.V.V.V.",
"V.V.V.2.A 0 0 , , , , P v.B.B.B.3., 0 0 0 0 0 0 0 0 0 t t.B.B.B.N.B.c.c 0 0 0 0 0 0 0 0 0 0 w p.B.B.V.q.0 , , , , , , D 4.V.V.V.",
"V.V.V.4.A , , , , , , 0 a.N.N.B.y.w , 0 , , , 0 , , , d k.B.N.N.N.N.M. .> 0 0 , , , 0 , , , g c.N.N.m.[ , , , , , , , A 4.V.V.V.",
"V.V.V.4.A , , > > , , > 2.N.N.N.z.d > > , , , > > , > B b.N.N.N.N.N.B.9., > > > , > > , , ; } M.N.N.z.j ; > > , , > , A 4.V.V.V.",
"V.V.V.4.A , > > > > > ; ~ b.N.N.n.[ ; , , > > > , , ; >.N.M.b.g.M.N.N.f.r > > > > > > > > > 7.N.N.N.u., ; , > > ; , , A 4.V.V.V.",
"V.V.V.4.j > > > ; > ; ; t h.N.M.B.7.; ; > ; > > ; ; 3 t.N.N.c.X.c.M.N.v.m ; > > > > ; > ; w d.N.M.M.@.; ; ; > ; ; ; ; A 4.V.V.V.",
"V.V.V.4.j > > > ; ; > ; > q.M.M.N.a.3 ; ; ; ; ; ; ; s k.M.B.a.d a.N.M.M.#.- ; ; ; ; ; > ; c c.M.N.v.z - ; ; ; ; ; ; > A 4.V.V.V.",
"V.V.V.4.p % % % % % % % % ~ n.M.N.x.g % % % % % % % M b.M.M.8.% 3.N.M.M.t.- % % % % % % $ { m.M.M.p.> % % % % % % % % j 4.V.V.V.",
"V.V.V.4.y @ @ @ @ @ @ @ @ w z.M.m.m.{ + @ @ @ @ @ + #.M.M.b.~ + Q b.M.M.k.2 @ @ @ @ @ @ @ 9.M.M.M.-.@ @ @ @ @ @ @ @ @ y 4.V.V.V.",
"V.V.V.4.y @ @ @ @ @ @ @ @ % t.n.m.M.9.$ @ @ @ @ @ $ t.M.M.l.w + 3 h.m.n.b.M @ @ @ @ @ @ - f.M.M.v.M + @ @ @ @ @ @ @ @ y 4.V.V.V.",
"V.V.V.4.u @ @ + @ @ + @ @ + +.n.b.M.g.: + @ + @ + 3 j.M.M.i.% @ $ e.M.n.M.>.+ @ @ + @ + g c.M.b.g.> @ @ @ @ @ @ + @ @ y 4.V.V.V.",
"V.V.V.4.y @ + + + @ @ @ + + k c.M.b.c.c + + @ + + N c.n.b.<.+ + +  .b.n.M.y.* + @ @ + + +.b.b.M.8.@ + @ + + @ @ @ + $ y 4.V.V.V.",
"V.V.V.4.y @ + + + @ @ + + + - d.b.b.M.O.+ + + + + #.M.b.v.B + + + d z.n.b.l.s + + + + # w.M.b.b.] + + @ + + + + + + @ y 4.V.V.V.",
"V.V.V.4.y @ + + + + + + + + @ 3.M.b.b.e.$ + + + $ y.n.b.j.3 . + + - p.n.b.b.C + + + + : g.b.b.l.r . + + + + + + + + + t 4.V.V.V.",
"V.V.V.4.t + + + + + + + + + . B c.b.b.h.2 + + + 5 k.b.b.t.$ + + + + 3.b.b.b.7.# + + + v c.b.b.t.$ + + + + + + + + + + e 4.V.V.V.",
"V.V.V.4.t + + + . + + + + + . 3 j.b.b.c.m + + . N c.b.b.+.. + + + + B c.b.b.d.: . + . #.b.b.b.+.+ . + . + + + + + + + y 4.V.V.V.",
"V.V.V.4.t + + + . + . + + + + # w.b.b.b.:.. . + :.b.b.z.m + . + . . 3 g.b.b.l.c . + # e.b.b.z.c . + + + . + + + . + . e 4.V.V.V.",
"V.V.V.2.t + . . + + . + . + . + { b.c.b.y.& + & y.c.b.g.2 . + + + + # w.b.b.b.O.. . 5 j.b.v.a.* . + . + + . . + + . + e 4.V.V.V.",
"V.V.V.2.e + . + + . + . + . . . f k.b.c.k.8 . 5 j.b.b.e.# . + . . + . } b.c.b.r.o . N c.b.b.,.o . + . + . + . . . . + q 2.V.V.V.",
"V.V.V.4.q . . . . + . o . + + . * i.b.c.x.C   V c.c.c.} . . . + . . . g k.b.c.j.5   :.b.c.x.B . . . + . . . + o + . + q 4.V.V.V.",
"V.V.V.2.q + . . . . . . . . + . + >.b.c.b.,.o :.b.c.k.x . . . . . . . * i.c.c.x.N O r.b.b.f.2 . . . . . . + . . . . . q 4.V.V.V.",
"V.V.V.4.q . . . . . . o . . . . . m l.c.c.p.5 y.c.v.d.= . . . . . . . o ,.b.c.c.:.8 g.c.c.q.# . . . . . o . . . . . o 0 2.V.V.V.",
"V.V.V.2.q . . . . . . . . . . .   1 f.c.x.l.Z f.c.c.9.o . . . . . . .   B l.c.c.y.o.l.c.c.o.. . . . . . . . . . . . . q 4.V.V.V.",
"V.V.V.2.< . . . . .   . . .   . . o 9.c.c.x.s.l.c.x.{     . .   . o .   5 g.c.c.l.s.x.c.k.f   . o .   . . . . . . . . 0 2.V.V.V.",
"V.V.V.4.0 . . . .     .   .   .     ] x.x.c.x.c.c.k.f   . . . . .   . . # e.c.c.x.c.x.c.y.&   . . . . . .     . .   . 0 4.V.V.V.",
"V.V.V.2.0 .     .   . .   . . .   . 9 g.c.x.x.x.c.i.*   .     .   . .     O.c.l.x.c.x.c.>.. .       .   .   .     . . 0 1.V.V.V.",
"V.V.V.4.< .   .   . .   . .   . X   O t.c.c.x.x.c.,.  .       .   . .     x j.x.x.l.c.l.m       . .             .     < 4.V.V.V.",
"V.V.V.1.<                             o.l.c.x.c.l.V     X       .     .   & y.x.c.c.x.y.1             .   X   . .   . < 2.V.V.V.",
"V.V.V.4.<             .       .       O V o.} } N &                         8 Z } o.Z 9                               < 2.V.V.V.",
"V.V.V.1.<       .       .                                                                           .                 , 2.V.V.V.",
"V.V.V.2.,                   .                                                                                         , 2.V.V.V.",
"V.V.V.2.,                                                                                                             < 2.V.V.V.",
"V.V.V.2.>                                                             X                                               > 2.V.V.V.",
"V.V.V.2.>                                                                                                             > 2.V.V.V.",
"V.V.V.2.:                                                                                                             > 3.V.V.V.",
"V.V.V.2., X X o X X X X X X X X X X   X X X X X X X X X X X X   X X X X X X X   X X X X X   X X X X X X   X X X X X X , 2.V.V.V.",
"V.V.V.4.w O O O O O O O O O O O O O O O O O O O O O O O O O & O O O o O O O O O O O O O O O O O O O O O O O O O O O O w 4.V.V.V.",
"V.V.V.4.i 1 1 1 1 1 1 4 1 1 8 1 4 4 5 5 5 5 8 5 8 5 6 7 7 8 9 9 8 8 8 9 7 8 5 8 6 7 5 5 5 5 4 4 4 2 2 4 4 1 2 2 1 1 1 s 4.V.V.V.",
"V.V.V.0.l n z n n n H n v M M K P P P P P P T P P Q Q Q Q Q Q Q Q Q Q Q Q T T T P T P P P P P P m K n K n H n n z z z l 8.V.V.V.",
"V.V.V.M.v.v.c.v.v.v.c.v.x.b.v.c.v.v.c.c.v.v.v.v.c.c.v.v.v.v.v.v.v.v.v.v.c.c.v.v.v.v.v.v.v.c.c.v.c.c.v.c.v.v.c.v.v.v.c.v.n.V.V.V.",
"V.V.V.V.V.V.V.V.V.V.V.V.V.V.V.V.V.V.V.V.V.V.V.V.V.V.V.V.V.V.V.V.V.V.V.V.V.V.V.V.V.V.V.V.V.V.V.V.V.V.V.V.V.V.V.V.V.V.V.V.V.V.V.V.",
"V.V.V.V.V.V.V.V.V.V.V.V.V.V.V.V.V.V.V.V.V.V.V.V.V.V.V.V.V.V.V.V.V.V.V.V.V.V.V.V.V.V.V.V.V.V.V.V.V.V.V.V.V.V.V.V.V.V.V.V.V.V.V.V."
};
