/* XPM */
static char *_ca1b4a2ba414a42fe808393b5327abbEHFjyTw5GXcSvBdn[] = {
/* columns rows colors chars-per-pixel */
"64 64 123 2 ",
"   c #392D17",
".  c #3F311A",
"X  c #44351D",
"o  c #473622",
"O  c #4A3624",
"+  c #4D3924",
"@  c #4F3729",
"#  c #4E3A29",
"$  c #513E26",
"%  c #543D2B",
"&  c #583F2C",
"*  c #583F30",
"=  c #56412B",
"-  c #5B432D",
";  c #5F482C",
":  c #574131",
">  c #5D4532",
",  c #5F4831",
"<  c #5D463A",
"1  c #60472F",
"2  c #624A2E",
"3  c #604732",
"4  c #644A34",
"5  c #694E36",
"6  c #654C39",
"7  c #694E3A",
"8  c #6B5036",
"9  c #6C523B",
"0  c #72563E",
"q  c #73583E",
"w  c #6E5441",
"e  c #725642",
"r  c #755943",
"t  c #7A5D44",
"y  c #715748",
"u  c #765C49",
"i  c #7A5E4A",
"p  c #7D6046",
"a  c #7E614B",
"s  c #7E6351",
"d  c #836346",
"f  c #83644B",
"g  c #88674B",
"h  c #87684D",
"j  c #8A6A4E",
"k  c #916E4F",
"l  c #96704F",
"z  c #836652",
"x  c #856954",
"c  c #8B6C53",
"v  c #866958",
"b  c #8D6E59",
"n  c #926E53",
"m  c #906F5A",
"M  c #8F705A",
"N  c #957153",
"B  c #987253",
"V  c #9E7757",
"C  c #9F7857",
"Z  c #957359",
"A  c #967359",
"S  c #977459",
"D  c #93725C",
"F  c #987358",
"G  c #9B7758",
"H  c #9A7759",
"J  c #9A755A",
"K  c #99765A",
"L  c #9C7759",
"P  c #9A765C",
"I  c #9E795A",
"U  c #9B785C",
"Y  c #9C795F",
"T  c #9D7A5F",
"R  c #9F7B5E",
"E  c #A27857",
"W  c #A07958",
"Q  c #A27A59",
"!  c #A07A5D",
"~  c #A37B5C",
"^  c #A0795F",
"/  c #A17D5E",
"(  c #A67D5C",
")  c #A47C5E",
"_  c #A87F5E",
"`  c #957561",
"'  c #997661",
"]  c #9C7962",
"[  c #957768",
"{  c #9D7C6B",
"}  c #9C7D70",
"|  c #A07A60",
" . c #A37F62",
".. c #A47D62",
"X. c #A67E62",
"o. c #A17E65",
"O. c #A47F64",
"+. c #A87F61",
"@. c #A17D6A",
"#. c #A38066",
"$. c #A48065",
"%. c #A68064",
"&. c #AA8062",
"*. c #A98165",
"=. c #AE8467",
"-. c #A7826B",
";. c #A6826D",
":. c #A8836B",
">. c #AB846B",
",. c #A8836C",
"<. c #A9836C",
"1. c #AE856D",
"2. c #B0866E",
"3. c #B3896F",
"4. c #A58274",
"5. c #AB8673",
"6. c #AE8876",
"7. c #B28A75",
"8. c #B58D7B",
"9. c #B98F7D",
"0. c #B38E83",
"q. c #B6928A",
"w. c #B99590",
/* pixels */
"; 3 2 1 ; = $ - 4 9 9 9 r 9 8 5 2 8 8 8 8 q t t t t t t 8 8 8 8 6 , : : , 4 4 6 8 8 9 8 8 5 3 4 5 5 5 8 0 0 0 q q 0 9 7 9 4 5 4 ",
"| | L n 5 $ : f S ' I I R R K K l l $.l V K l l G G G $.$.l $.k Z a , ; , q j K C N B B B l k N B C E ) / $.........../ ( E W E ",
"..1.3.=.t % 6 ] #.o.$...#.#.#.$.$.$.$.$.$.G G $.l $.G $.$.$.$.$.:.#.5 = 9 j $.$.) C B N k k k N N C C I I $.:.:.2.>.&._ &.) W K ",
"r p B +.a % r o.#.-.-.o.S N N n k j g h g d j j k j l k k k $.$.#.N q = 8 h h d g q q q q q 0 q t p a f f f f g j j j g j d t q ",
"r r d V i - r ;.:.K f p q q 0 q q q q p t p p p t t p p p p h $.R N r : 8 a f a p 0 q q r 9 5 9 0 t t t p t p p t t t t t t r r ",
"d p d l a 4 0 -.$.p t q 0 8 8 q q t p p p p p h p t p p p q q $.K j p > 9 a h h a a a p g f p d p a a p p f p a a f f f d a p p ",
"f f j k p 4 e @.R p p f f a f f s p s h h h j h p p p a a p a Z G j p , 9 a a h h j n k c c c n c c j n n j j h g h j x g f f f ",
"c c c c a 4 6 o.#.k j f f f f h h h j h j j c c k k k j j c c k l h p > 9 h a j n N B B N N k N N N N N N N N N N c c c c c c c ",
"N c c c r 4 > n K c c c c j j c c n c c c c c c h j j g j j j j N j p - 9 z f c K B B B B B B n n n n n k M k N n n k M k n c n ",
"c c N c r 4 % d C k k N n c j h j j c n N k c j j k j j j c n n C j r ; 9 c B N B B B B E B B n n n n k k N N l n n k c c c c c ",
"N k n j i 4 & r l N N l N k k c j j k l N N N N N N N l n B B B I j 9 = 8 c B B k B N B B l B l N N B l N N B B N N l l N l k N ",
"l N B n r 4 : r k N B B N N k k N k l B N l l l l N B B B B B B I x 9 : 8 j l l B B B B B l l B #.N B B B N B l l l N B l N N N ",
"N N B k t 4 : r N B B B G k k c k k l B E B l B B B N l N N B B I j 9 > 9 c B B B N B B B N B B k l l G B B l B B B B B N l G l ",
"K B B B t 3 > e N B B N N l n k j k k B l l B N B F B N N B B B / h 9 > 7 c B F B B B B B B B B l l B l N B B B B B B B G N N B ",
"B l B B t 3 < 9 K B N N k k c c k k l k k n N B B B B B B B B B ) j 9 2 8 c B k B B B B B B B k B B l B B B B B B l B B B B B B ",
"B B E B r 4 < 9 F V S N n n k k n k B B l B N B B B N B B F B B W g q > 8 j V B B B B N B B B B B N B B B N B B B N N B B N B B ",
"B B V B r 4 & 7 N V N B n n n B n k N N B B B F B B F B V B F E V d 0 2 5 k E E B B F B B B B B N B B G B B B B B B B B B B B B ",
"j n n j q 3 * 6 g W V B E B B V V B B N B B N B B E ~ ) ~ E E E N 0 9 = 3 c E B B B B B B B B F B B B B B k B B B n n n n n n n ",
"d i t i 7 > > 6 t j V Z k k k n g d f d f f f f j B B B m c g f r 0 7 = ; f N B n F n B n m n c c c k k m n n c c f f f f f f i ",
"7 7 7 7 > - - > 5 9 0 r 0 7 5 4 4 4 3 4 4 4 3 3 4 7 7 5 4 4 6 7 5 7 4 & - r f c c j j d d d i i p p p p d t t e e q 9 9 7 7 7 e ",
"% $ % - & = $ $ = = = > 4 > 4 > > % % & * * & & % & & - - ; 3 > > - & $ $ > 7 e e 7 7 3 3 3 3 4 - ; 1 3 3 3 - - 3 - : & & & % & ",
"% - 3 3 4 3 ; 3 6 > > > < 4 ; ; > * % @ * * * & % @ % % & 3 7 5 7 7 3 1 4 4 4 4 4 4 3 3 3 > ; ; = - - & - & & % - 3 3 > - - & - ",
"; e Z ] o.R S F R ] { -.-.] $.K D D m n c m x f y % & 7 j P o.o.@.@.] ' Z n n n c c n m n n n D n n D m c j g f b m b c f t 7 3 ",
"1 Z 7.9.9.9.8.8.8.8.8.8.7.7.7.7.8.9.8.7.7.6.2.8.@.: 3 j 2.9.0.0.q.q.0.8.6.,.>.:.5.2.6.:.;.>.5.,.-.-.-.:.:.5.5.0.q.q.w.w.0.7...e ",
"- g k j h h k j c s h h p h h p d c g f j d f ' :.; > g ,.4.4.4.{ ] ` b b x x z x c z f z z c z c x N D D v v b ' [ } 4.4.4.6.z ",
"- t p t t p p p p p q p p p t t r r r 9 8 9 8 t g - 3 t ` v v x f z s f i s i i u u u r r e w r r r w w 9 w r y u i s s v v [ x ",
"> a p t p a a h f f a h s f s a f f f f r r r t q = 2 r b b b c x j x c x z z z f s s a u r r r r r u r r u u i s s s v v v v f ",
"4 f p p p a j j j x c c c j c c j c c c f f f t 9 - 3 r c ` b D m b b c c b c j x x x x z a u u i i i u u a s x s v s s s s z w ",
"> a p p h d h h j j c c j j j j c c c c j j d d q 4 5 r x D D D Z m Z m m F n n c c b c v s s s s s s u s s x v v v s i i u u w ",
"> p f f c c c c x j c c c c c j c c c c c c c c t 4 6 r x b b m n m m Z D m m m M D b b v v s s s s s s v v v v v v s s s i y w ",
"< a h j c c k M c c c n n Z n N n n n n n N N n q 5 8 r v b b b c b m m b b b m b b c b b v v v v v v b m ` ` b v v v s s z s y ",
"= r x c c k c c c c c k k N K N B B B B B B B n p 8 8 a z b v b x b b b m m b D M ` M D D M b b b b b b b b b b b b v b b [ b u ",
"% e j B n B n n m n n n k B B B l B B B B l N N p 9 0 s M M x M c b m ` ` D ` D ` ` ` ` ` m m m m m b v v D b D b b b ` ` ` m u ",
"% 0 n B B B B N B B B B B B B B B B B B B N B N q 8 w a M M c M ` ` ` ` ` ` ` ` ` ` ` ` ` [ ` ` D D ` m m m D D ` ` ` ` ` ` ` u ",
"@ 7 j B B B B B l B B B B B B B B B l B B B B l p 8 9 a M M M M m ` ` ` ` ` ` ` ` ` ` ` ' ` ` ` b D D D ` b D ` ` ` ` ` ` ` b u ",
"% 7 c B B B B B B B B B B B B B B B F B B B B N t 8 5 w M ` ` M b ` ` ` ` ` ` ` ` ` D ` D ` ` ` ` D m D D b D m b ` ` ` ` [ b u ",
"* w c n B B B F B B B B B B B B B N N B B B B N q 8 2 8 M ` ` ` b D ` ` ` ` ` ` ` ` [ ` ` ` ` P ` D D m m m D m m ` ` ` ` ` b y ",
"% 7 n n N n n n n B n n B n n N l N N N N l B E p 8 2 9 c ` ` ` ` b b D m D m m m D D D m ` m m b v D D m b b b m m m m m ` b u ",
"@ w B B B N B B B B B n n n n m j n N N N N l K p 2 2 9 s Z D D D D D D ` D D b m ` D D ` D m m m m D m D m m b b m ' m ' Z ' u ",
"@ 7 B V B B B B B B B B B B n B B N N N B B B C p ; ; 9 a D ` ` ` ` D m ` D D ` m ' ' ' ` m F F m D D m m m m m m ' Z Z m S P u ",
"O : n B B B F B B B B B B B B B B B B B B B B V q 2 2 8 f D [ ' ` ` ` D D D D ` D Z D K m m F m N m m n n m m n m Z F F m F K y ",
"O O 7 d j k d g N B N B B B B B B B B B B B B B p ; 2 8 a v ` ] ` D D ` m m D ` ` D F F N m n n F n n b n n m n m m n F F F m r ",
"X o 9 i 7 4 0 e t t f j n n B n N N N B n n n N p 2 2 5 q f z x z s a z f v x c x c x x c c c c c z f f f z f z z z j x c m c 9 ",
". O 6 9 3 & 6 0 q 6 > 5 7 y 0 e e r r e q r q t 8 ; 2 2 4 9 r r r 9 e w 0 0 e q r r e e e u i i r e e 0 e y y e e 9 w w w e 7 & ",
"  X O + O o O $ + o O = = + + + O = = = - ; ; - - ; ; 2 5 8 8 8 9 5 5 4 4 2 4 4 6 6 4 4 3 4 5 5 6 3 3 3 3 3 3 > * - & % @ @ X X ",
"- 3 7 3 3 > > & $ $ = = + + + = ; ; 5 0 0 8 q q d d t d d d d j j g g g j k j g d g d t 5 1 & 3 3 3 9 9 5 4 7 7 0 0 9 > & 1 > & ",
"W I L E V L K F n j n c q = ; f N N Z F K R ( &.$.$.#.#.%.=.$.%.*.*.*.O.+.o.O.O.+...+.) g 1 & 5 d n W Q F  ...@.,.+.>.~ F E E L ",
"Q ) W E E ) ) W I ~ W ~ t = 4 n K c h c v c N N M D Z Z U R K #.] ] ] ] ~ ] | | | | | ) n 3 @ 0 n E ) ) ) R ~ L B F B F F L Q W ",
"p h f d f f d p p p f j r = > x s e u s x z x x x h s x s x x x z s a s a u u u u r i z f 6 % 9 z j c n c f f t p 9 9 9 8 0 q q ",
"8 8 0 9 9 9 9 9 8 9 p x t $ 3 a a u a s x x v x c x z x x c x s s s a a i i u r e w e u i 4 % 6 g d z b j f j f p q 8 4 4 2 2 4 ",
"9 0 r e 9 8 8 8 8 9 p c a = > a a a z x x x c c x v x x c b v c v h a a s s s s i r u z a 6 % 6 f j n c j h f j p p 0 5 4 4 5 7 ",
"t p t t t t r 0 q 9 p j f 6 4 a a a x x x c c v c c x x x b v x x s z s s z x s s s i c z 7 & 6 f j c j h j h g a a p p t t t t ",
"c j j f f f f p p u a n x 4 6 a x v b c x x x v c x x v v b M c v x x x x x x x v z z c f 7 * 6 d c n c j n B c c j c j j c j j ",
"N N N c c c c j h h j c h 7 4 z c m M v b x c b v v x M M M M M M M M M M b v M b x v b z w * 6 i m n B B B B B N N N N k n n N ",
"N N B B B B B N n c N N x 6 6 a x b b b m m m m D ` D D ` ` D ` ` ` D D ` D ` D D c b b z w * 4 d B B B B B B B B B B N B N N B ",
"F B B B B B B N N l N N f 4 4 a x v b m D D ` ` ` ` ` ` ` ` ` ` ` U ` ` ' ` D ` D D c D v w * 4 d n B B B B B k N B B l B B B B ",
"k B B B B B N B N B B l j > 4 a c b D ` ` ` ` ` ` ` ` ` ` ` ` ` ` D ` ` ` ` ` ` ` m m m b w * 6 d B B B B B B B B B B B B B k B ",
"B B B B N B N B B B B N f = 4 f m D ` ' ` ` ` ` [ ` ` ` ` ` ` ` ` ` ` ` ` ` ` ` ` ` ` ' c e * < d B B B B n B B B B B B n B B B ",
"B B B N B B B B B B B V a = 4 a Z ' ` ` ` ` ' ` ` ` ` ` ` ` ` ` ` ` U ` ` ` ` ` ` ` ' ` m e * 4 f B B B B B B B B N B B B B B B ",
"B B B B B B B B l B B B p = ; a D ] ` ' ` ` ` ` ` U ` ` D ` ` ` ` ` ` ` ` ` ` ` ` ` ` | N 9 # < d E B B B B B B B B B B B B B B ",
"B B B B B B B B B B F n t - 3 t m | D ' ` ` ` ` ` ` ` ` ` ` ` ` ` ` ` ` ` ` ` [ ` ` ` | n 0 @ 3 d B B B B B B B B B B B B B B B ",
"B B B B B B m B B n n n t > 3 e n D P D ` ` ` ` ` ` ` ` ` ` [ U ` ` ` ` ` ` ` ` ` ` ' P c 6 @ 3 r c B B B B B B B B B B B B B B ",
"g g z c j f j f f f f f e 3 - 3 u i f v x v x z x z x x x v x x x v x s s x x b x c j j d & @ & e d d g j j j j g j j j j j f j ",
"5 5 7 9 0 9 7 9 7 7 4 : ; ; $ # % % * > > * : : : : : : : < < < < w 6 < 6 w 9 9 w 7 0 7 4 & @ @ 3 5 3 5 4 5 4 4 4 4 4 4 4 4 7 5 "
};
