/* XPM */
static char *_661f4fe9c0e48558f42c95d70cba79cTRWCBXd43FwEj0rZ[] = {
/* columns rows colors chars-per-pixel */
"64 64 41 1 ",
"  c black",
". c #161616",
"X c #181818",
"o c gray17",
"O c gray20",
"+ c gray24",
"@ c #444444",
"# c #464646",
"$ c gray33",
"% c #555555",
"& c gray34",
"* c gray39",
"= c #646464",
"- c DimGray",
"; c #6F6F6F",
": c #717171",
"> c #7B7B7B",
", c #7C7C7C",
"< c #868686",
"1 c gray55",
"2 c #9F9F9F",
"3 c #A7A7A7",
"4 c gray66",
"5 c gray68",
"6 c gray71",
"7 c gray73",
"8 c #C0C0C0",
"9 c #CACACA",
"0 c #CECECE",
"q c #D0D0D0",
"w c gray83",
"e c #D8D8D8",
"r c gray87",
"t c gray89",
"y c gray90",
"u c #EAEAEA",
"i c #EEEEEE",
"p c #F3F3F3",
"a c gray96",
"s c #F8F8F8",
"d c white",
/* pixels */
"                                                                ",
"                                                                ",
"                                                                ",
"                                                                ",
"                                                                ",
"                                                                ",
"          .@%%%%@X                                              ",
"         .<wttttw3*%%%%%%%%%%%%%%%%%%%%%%@X                     ",
"         @wddddddautttttttttttttytttttttt02*%%%%%@X             ",
"         %tdsuuaddddddddddddddddddddddddddiyttttt9,.            ",
"         %tdu1=4etttttttttttttttttttttttyudddddddd5O            ",
"         %tdt% .@%%%%%%%%%%%%%%%%%%%%%%%=20ttttyr9,.            ",
"         %tdt%                           .@%%%%%%@X             ",
"         %tdt%                                                  ",
"         %tdt%                                                  ",
"         %tdt%                                                  ",
"         %tdt%                                                  ",
"         %tdt%                                                  ",
"         %tdt$                                                  ",
"         %tdt$                                                  ",
"         %tdt%                                                  ",
"         %tdt%                                                  ",
"         %tdt$                                                  ",
"         *ydt$                                                  ",
"        .2id0@                                                  ",
"        @0di2.                                                  ",
"        %tdy*                                                   ",
"        %tdt%                                                   ",
"        %tdt$                                                   ",
"        %tdt%                                                   ",
"        %tdt%                                                   ",
"        %tdt;-=%%%%%%%%%%%%%%%%%%%%%%@o@%%%@X                   ",
"        %tdy9uiyttttttttttttttttyyttt070rtt9>.                  ",
"        %tdiudddddddddddddddddddddddddtddddd5O                  ",
"        %tdy0uiytttttttttttttttttttttq70ttt9>.                  ",
"        %tdt;-=%%%%%%%%%%%%%%%%%%%%%%@o@%%%@.                   ",
"        %tdt%                                                   ",
"        %tdt%                                                   ",
"        %tdy=                                                   ",
"        @0di2.                                                  ",
"        X2id0@                                                  ",
"         *ydt%                                                  ",
"         %tdt$                                                  ",
"         %tdt%                                                  ",
"         %ydt%                                                  ",
"         %ydy=                                                  ",
"         %tda4.                                                 ",
"         @wdde@                                                 ",
"         X3adt%                                                 ",
"          *udt%                                                 ",
"          %tdu*                                                 ",
"          %tda9:%@X                                             ",
"          @wddspt02=%%%%%%%%%%%%%%%%%%@+-%o@%@. .OX             ",
"          X2pddddduytttttyttttttttttttqeur80r03;26,.            ",
"           o3upiuidddddddddddddddddddddaddudddiupd9@            ",
"            .%>==20ttttyttttttttttttytqwut80tiddddq@            ",
"                 .@%%%%%%%%%%%%%%%%%%%@+-%o@=40yyw<.            ",
"                                             .@%%@X             ",
"                                                                ",
"                                                                ",
"                                                                ",
"                                                                ",
"                                                                ",
"                                                                "
};
