/* XPM */
static char *e0243d83204b4d179e49086d769c2bd9VfERyEPunBOKL5kw[] = {
/* columns rows colors chars-per-pixel */
"64 64 32 1 ",
"  c black",
". c #070700",
"X c #090900",
"o c #0E0E00",
"O c #121200",
"+ c #141400",
"@ c #1A1A00",
"# c #1D1D00",
"$ c #252500",
"% c #292900",
"& c #2F2F00",
"* c #343400",
"= c #3E3E00",
"- c #454500",
"; c #4C4C00",
": c #4D4D00",
"> c #515100",
", c #555500",
"< c #5F5F00",
"1 c #828200",
"2 c #838300",
"3 c #989800",
"4 c #999900",
"5 c #A8A800",
"6 c #B8B800",
"7 c #BABA00",
"8 c #CCCC00",
"9 c #D3D300",
"0 c #D4D400",
"q c #E7E700",
"w c #E9E900",
"e c yellow",
/* pixels */
"eeeeeeeeeeeeeeeeeeeeeeeeeeeeeeeeeeeeeeeeeeeeeeeeeeeeeeeeeeeeeeee",
"eeeeeeeeeeeeeeeeeeeeeeeeeeeeeeeeeeeeeeeeeeeeeeeeeeeeeeeeeeeeeeee",
"eeeeeeeeeeeeeeeeeeeeeeeeeeeeeeeeeeeeeeeeeeeeeeeeeeeeeeeeeeeeeeee",
"eeeeeeeeeeeeeeeeeeeeeeeeeeeeeeeeeeeeeeeeeeeeeeeeeeeeeeeeeeeeeeee",
"eeeeeeeeeeeeeeeeeeeeeeeeeeeeeeeeeeeeeeeeeeeeeeeeeeeeeeeeeeeeeeee",
"eeeeeeeeeeeeeeeeeeeeeeeeeeeeeeeeeeeeeeeeeeeeeeeeeeeeeeeeeeeeeeee",
"eeeeeeeeeeeeeeeeeeeeeeeeeeeeeeeeeeeeeeeeeeeeeeeeeeeeeeeeeeeeeeee",
"eeeeeeeeeeeeeeeeeeeeeeeeeeeeeeeeeeeeeeeeeeeeeeeeeeeeeeeeeeeeeeee",
"eeeeeeeeeeeeeeeeeeeeeeeeeeew75555555555555557qeeeeeeeeeeeeeeeeee",
"eeeeeeeeew75555555555555554,$@@@@@@@@@@@@@@#*1weeeeeeeeeeeeeeeee",
"eeeeeeee0<$@@@@@@@@@@@@@@@+X                 >8eeeeeeeeeeeeeeeee",
"eeeeeeew<o                   XO@@@@@@@@@@@@#*1weeeeeeeeeeeeeeeee",
"eeeeeee7$  .+@@@@@@@@@@@@@@@$,455555555555557qeeeeeeeeeeeeeeeeee",
"eeeeeee4+ X=45555555555555556qeeeeeeeeeeeeeeeeeeeeeeeeeeeeeeeeee",
"eeeeeew<O $5eeeeeeeeeeeeeeeeeeeeeeeeeeeeeeeeeeeeeeeeeeeeeeeeeeee",
"eeeeee7& O<weeeeeeeeeeeeeeeeeeeeeeeeeeeeeeeeeeeeeeeeeeeeeeeeeeee",
"eeeeee4@ @4eeeeeeeeeeeeeeeeeeeeeeeeeeeeeeeeeeeeeeeeeeeeeeeeeeeee",
"eeeeew<o *7eeeeeeeeeeeeeeeeeeeeeeeeeeeeeeeeeeeeeeeeeeeeeeeeeeeee",
"eeeee7& O<weeeeeeeeeeeeeeeeeeeeeeeeeeeeeeeeeeeeeeeeeeeeeeeeeeeee",
"eeeee5# +4eeeeeeeeeeeeeeeeeeeeeeeeeeeeeeeeeeeeeeeeeeeeeeeeeeeeee",
"eeeee5@ @5eeeeeeeeeeeeeeeeeeeeeeeeeeeeeeeeeeeeeeeeeeeeeeeeeeeeee",
"eeeee5@ #5eeeeeeeeeeeeeeeeeeeeeeeeeeeeeeeeeeeeeeeeeeeeeeeeeeeeee",
"eeeee5@ @5eeeeeeeeeeeeeeeeeeeeeeeeeeeeeeeeeeeeeeeeeeeeeeeeeeeeee",
"eeeee5@ +4eeeeeeeeeeeeeeeeeeeeeeeeeeeeeeeeeeeeeeeeeeeeeeeeeeeeee",
"eeeee5@ X,weeeeeeeeeeeeeeeeeeeeeeeeeeeeeeeeeeeeeeeeeeeeeeeeeeeee",
"eeeee7$  $7eeeeeeeeeeeeeeeeeeeeeeeeeeeeeeeeeeeeeeeeeeeeeeeeeeeee",
"eeeeeq,X +4eeeeeeeeeeeeeeeeeeeeeeeeeeeeeeeeeeeeeeeeeeeeeeeeeeeee",
"eeeeee4O .-9eeeeeeeeeeeeeeeeeeeeeeeeeeeeeeeeeeeeeeeeeeeeeeeeeeee",
"eeeeee7$  X;0eeeeeeeeeeeeeeeeeeeeeeeeeeeeeeeeeeeeeeeeeeeeeeeeeee",
"eeeeeeq<o  X-5weeeeeeeeeeeeeeeeeeeeeeeeeeeeeeeeeeeeeeeeeeeeeeeee",
"eeeeeee9;X  X#,47qeeeeeeeeeeeeeeeeeeeeeeeeeeeeeeeeeeeeeeeeeeeeee",
"eeeeeeee9;o   X+&<4556qeeeeeeeeeeeeeeeeeeeeeeeeeeeeeeeeeeeeeeeee",
"eeeeeeeee9<#X    O+@@*<4555557qeeeeeeeeeeeeeeeeeeeeeeeeeeeeeeeee",
"eeeeeeeeeew5,$@OO     O+@@@@#&<4555557qeeeeeeeeeeeeeeeeeeeeeeeee",
"eeeeeeeeeeeew754<&#@+O        O+@@@@@$,457qeeeeeeeeeeeeeeeeeeeee",
"eeeeeeeeeeeeeeeew7554<&#@@@@+O        X+@$<0eeeeeeeeeeeeeeeeeeee",
"eeeeeeeeeeeeeeeeeeeeew7555554<&#@@@OX     o;9eeeeeeeeeeeeeeeeeee",
"eeeeeeeeeeeeeeeeeeeeeeeeeeeeew755554,$@+X  X;9eeeeeeeeeeeeeeeeee",
"eeeeeeeeeeeeeeeeeeeeeeeeeeeeeeeeeeeew754-X  X<weeeeeeeeeeeeeeeee",
"eeeeeeeeeeeeeeeeeeeeeeeeeeeeeeeeeeeeeeee0;X  #5eeeeeeeeeeeeeeeee",
"eeeeeeeeeeeeeeeeeeeeeeeeeeeeeeeeeeeeeeeee9-X X,weeeeeeeeeeeeeeee",
"eeeeeeeeeeeeeeeeeeeeeeeeeeeeeeeeeeeeeeeeee5#  #5eeeeeeeeeeeeeeee",
"eeeeeeeeeeeeeeeeeeeeeeeeeeeeeeeeeeeeeeeeeeq,X X,weeeeeeeeeeeeeee",
"eeeeeeeeeeeeeeeeeeeeeeeeeeeeeeeeeeeeeeeeeee5#  $7eeeeeeeeeeeeeee",
"eeeeeeeeeeeeeeeeeeeeeeeeeeeeeeeeeeeeeeeeeeeq;X @5eeeeeeeeeeeeeee",
"eeeeeeeeeeeeeeeeeeeeeeeeeeeeeeeeeeeeeeeeeee0=. @5eeeeeeeeeeeeeee",
"eeeeeeeeeeeeeeeeeeeeeeeeeeeeeeeeeeeeeeeeee9;X  $7eeeeeeeeeeeeeee",
"eeeeeeeeeeeeeeeeeeeeeeeeeeeeeeeeeeeeeeew74;o  o<weeeeeeeeeeeeeee",
"eeeeeeeeeeeeeeeeeeeeeeeeeeeeeeeeeeeeew5<&@o  X;9eeeeeeeeeeeeeeee",
"eeeeeeeeeeeeeeeeeeeeeeeeeeeeeeeeew754<%O   o$<9eeeeeeeeeeeeeeeee",
"eeeeeeeeeeeew75555555555555555554<&#+O  O@&<5qeeeeeeeeeeeeeeeeee",
"eeeeeeeeew74<&#@@@@@@@@@@@@@@@@@@o    O%<47qeeeeeeeeeeeeeeeeeeee",
"eeeeeeeew1*@o                     O+#&<5qeeeeeeeeeeeeeeeeeeeeeee",
"eeeeeeee8>   O+@@@@@@@@@@@@@@@@@#&<456qeeeeeeeeeeeeeeeeeeeeeeeee",
"eeeeeeeew1*#&<45555555555555555557qeeeeeeeeeeeeeeeeeeeeeeeeeeeee",
"eeeeeeeeew757qeeeeeeeeeeeeeeeeeeeeeeeeeeeeeeeeeeeeeeeeeeeeeeeeee",
"eeeeeeeeeeeeeeeeeeeeeeeeeeeeeeeeeeeeeeeeeeeeeeeeeeeeeeeeeeeeeeee",
"eeeeeeeeeeeeeeeeeeeeeeeeeeeeeeeeeeeeeeeeeeeeeeeeeeeeeeeeeeeeeeee",
"eeeeeeeeeeeeeeeeeeeeeeeeeeeeeeeeeeeeeeeeeeeeeeeeeeeeeeeeeeeeeeee",
"eeeeeeeeeeeeeeeeeeeeeeeeeeeeeeeeeeeeeeeeeeeeeeeeeeeeeeeeeeeeeeee",
"eeeeeeeeeeeeeeeeeeeeeeeeeeeeeeeeeeeeeeeeeeeeeeeeeeeeeeeeeeeeeeee",
"eeeeeeeeeeeeeeeeeeeeeeeeeeeeeeeeeeeeeeeeeeeeeeeeeeeeeeeeeeeeeeee",
"eeeeeeeeeeeeeeeeeeeeeeeeeeeeeeeeeeeeeeeeeeeeeeeeeeeeeeeeeeeeeeee",
"eeeeeeeeeeeeeeeeeeeeeeeeeeeeeeeeeeeeeeeeeeeeeeeeeeeeeeeeeeeeeeee"
};
