/* XPM */
static char *e8247d74b0494c8ec42d6d3d85c563341NufwnibBPx0CySl[] = {
/* columns rows colors chars-per-pixel */
"64 64 48 1 ",
"  c red",
". c #FF1600",
"X c #FF1800",
"o c #FF2B00",
"O c #FF2D00",
"+ c #FF3300",
"@ c #FF4400",
"# c #FF4600",
"$ c #FF5000",
"% c #FF5500",
"& c #FF6300",
"* c #FF6500",
"= c #FF6900",
"- c #FF7000",
"; c #FF7700",
": c #FF7B00",
"> c #FF7C00",
", c #FF8200",
"< c #FF8700",
"1 c #FF8800",
"2 c #FF8D00",
"3 c #FF9000",
"4 c #FF9500",
"5 c #FF9E00",
"6 c #FFA600",
"7 c #FFA700",
"8 c #FFAA00",
"9 c #FFAD00",
"0 c #FFB000",
"q c #FFB400",
"w c #FFBA00",
"e c #FFBD00",
"r c #FFC300",
"t c #FFC400",
"y c #FFCA00",
"u c #FFCE00",
"i c #FFD000",
"p c gold",
"a c #FFD800",
"s c #FFDF00",
"d c #FFE300",
"f c #FFE500",
"g c #FFE900",
"h c #FFED00",
"j c #FFF300",
"k c #FFF500",
"l c #FFFB00",
"z c #FFFE00",
/* pixels */
"                                                                ",
"                                                                ",
"                                                                ",
"                                                                ",
"                                                                ",
"                                                                ",
"                                                                ",
"                                                                ",
"                                                                ",
"                                                                ",
"                                                                ",
"                                                                ",
"                                                                ",
"                                                                ",
"    .+X                     .+X                     .+X         ",
"   .:9>.                   .<e1.                   .<e1.        ",
"   #tzi%                   %dzd$                   %dzd$        ",
"   #yzg6.                  2lzl,                   ;kzj;        ",
"   X5hzu#                 .tzzz4                   -jzj*        ",
"    &fzd*                 #fzzzq.                 .8kzd$        ",
"    #uzh5.                *gzzzi#                 #pzza#        ",
"    X5hzu#               .6kzzzd$                 %fzk6.        ",
"     &fzf*               #azzlzg*                 *fzf*         ",
"     %fzk6.              *fzlhzh6.               .5hzu#         ",
"     #pzza#             .5hzsehzs&               #izh5.         ",
"     X6kzf%             %pzh5-fzlyo              %dzg*          ",
"      -jzh*            .6kzg&#szzh=              *fzd$          ",
"      ;jzj;            #azza#X6kzg*             .5hzu#          ",
"      %fzf%            *fzk6. o6dp<.            #uzh6.          ",
"      owgi$           o8hza%   %uzy#            %dzf*           ",
"      +0zkro         .4fzf4.   %szd&            *fzd$           ",
"      X8kzg=         %izg8o    #uzj8.          .6hzu#           ",
"       -jzh&        O0hzp%     X6kzf%          #uzh6.           ",
"       %dzd%       .5hzh5.      ,kzj;          *dzd&            ",
"       #yzi%       #azzs%       %fzf*         .5hzu#            ",
"       X<pp<.      *gzj8.       X3pp4o        #uzh5.            ",
"        $izy#     .5hza%         #qzs4.       *fzf*             ",
"        %dzd%     $pzg5.         X4gzu#      .5hzu#             ",
"        %dzg*    .6gzp%           *fzf&      #uzh5.             ",
"        #uzh5.   #uzh5.           #uzh5.     &fzf*              ",
"        X5hzi#   *fzf&            X5gzp$    .5hzu#              ",
"         &fzf&  .5hzu#             %pzg6.   #uzh5.              ",
"         %fzk8. %izh5.             X5hzp%   &dzf*               ",
"         #pzza#.5hzp%               $pzh5. .6hzi#               ",
"         X6kzd$@uzh5.               X5hzi# #uzh5.               ",
"          *gzg**fzd&                 &fzd& %dzg*                ",
"          %dzk96hzu#                 #uzh5.*fzd$                ",
"          #pzzdszh6.                 X5hzi%5hzu#                ",
"          X6kzhhzf*                   &dzd4pzg5.                ",
"           *gzkkzi#                   #yzjahzp%                 ",
"           %dzlzh5.                   X6hzkzh6.                 ",
"           #uzzzg*                     %pzzzf&                  ",
"           X5jzzh%                     X5jzzg%                  ",
"            &hzzh$                      &hzzh%                  ",
"            %hzzh%                      %gzzh%                  ",
"            %gzzg%                      #szzk&                  ",
"            #azza#                      Xezzl,                  ",
"            X1ip<.                       4zzl4                  ",
"             .##X                        2lzze.                 ",
"                                         :kzzy+                 ",
"                                         Orjd<.                 ",
"                                          o*%X                  ",
"                                                                ",
"                                                                "
};
