/* XPM */
static char *_b482d1882d84419f4ca9f6c8d59377d9yIvRhwpmpu8BZmi[] = {
/* columns rows colors chars-per-pixel */
"64 64 37 1 ",
"  c blue",
". c #1616FF",
"X c #1818FF",
"o c #2B2BFF",
"O c #3333FF",
"+ c #4444FF",
"@ c #5454FF",
"# c #5555FF",
"$ c #6262FF",
"% c #6464FF",
"& c #7777FF",
"* c #7B7BFF",
"= c #7C7CFF",
"- c #8686FF",
"; c #8888FF",
": c #8D8DFF",
"> c #9E9EFF",
", c #A3A3FF",
"< c #A7A7FF",
"1 c #ABABFF",
"2 c #ADADFF",
"3 c #B2B2FF",
"4 c #B9B9FF",
"5 c #BDBDFF",
"6 c #C3C3FF",
"7 c #C6C6FF",
"8 c #CACAFF",
"9 c #D7D7FF",
"0 c #D9D9FF",
"q c #DDDDFF",
"w c #E3E3FF",
"e c #E4E4FF",
"r c #EAEAFF",
"t c #EDEDFF",
"y c #F2F2FF",
"u c #F4F4FF",
"i c white",
/* pixels */
"                                                                ",
"                                                                ",
"                                                                ",
"                                                                ",
"                                                                ",
"                                                                ",
"                                                                ",
"                                                                ",
"                                                                ",
"                                                                ",
"                                                 .OX            ",
"                                                .*2=.           ",
"                                                +8i9#           ",
"                                                #wiy<.          ",
"           .OX                                  +9ii9+          ",
"          .-5;.                                 X<uiw#          ",
"          #wie%                                  %riw@          ",
"          &uii7o                                 #wiw@          ",
"          %yiiy3o                                #wiw#          ",
"          #tiiit1o                               #wiw#          ",
"          #eiiiir1o                              #wiw#          ",
"          #wiuruir1o                             #wiw#          ",
"          #wie,qiiw1#X                           #wiw@          ",
"          #wiw%-0rir0-.                          #wiw@          ",
"          #wiw@.#1wii0#                          #wiw#          ",
"          #wiw@  o1rir3#X                        #wiw#          ",
"          #wiw#   o1wir0-.                       #wiw@          ",
"          #wiw#    o,wiiq&X                      #wiw@          ",
"          #wiw#     o1riuq>o                     #wiw@          ",
"          #wiw#      o1riit1o                    #wiw@          ",
"          #wiw#       o1tiiw1#X                  #wiw#          ",
"          #wiw#        o,qrir0,o                 #wiw#          ",
"          #wiw#         .#1wiiy3o                #wiw@          ",
"          #wiw#           o1tiiy3o               #wiw@          ",
"          #wiw#            o3yiiy4#.             #wiw#          ",
"          #wiw#             o3yiiuq,o            #wiw#          ",
"          #wiw@              o3yiiit3o           #wiw#          ",
"          #wiw@               o>wuiiy3o          #wiw#          ",
"          #wiw#                .#4yiit1o         #wiw@          ",
"          #wiw#                  o3yiir1o        #wiw@          ",
"          #wiw#                   o>quir3#X      #wiw#          ",
"          #wiw#                    .*qiitq,o     #wiw#          ",
"          #wiw#                     X-0tiit3o    #wiw@          ",
"          #wiw#                      X#3tiit3#X  #wiw@          ",
"          #wiw#                        o3yiitq>o #wiw@          ",
"          #wiw#                         o,qtiiy3o#wiw@          ",
"          #wiw#                          .#3tiiy4:eiw#          ",
"          #wiw#                            o3yiiuruiw#          ",
"          #wiw#                             o3tiiiiir#          ",
"          #wiw#                              o,wuiiiy$          ",
"          #wiw#                               .#4uiiu&          ",
"          #wiw#                                 o4uiw#          ",
"          #wiw#                                  o>6;.          ",
"          #wiw#                                   .OX           ",
"          +8i8+                                                 ",
"          X*2=.                                                 ",
"           .OX                                                  ",
"                                                                ",
"                                                                ",
"                                                                ",
"                                                                ",
"                                                                ",
"                                                                ",
"                                                                "
};
