/* XPM */
static char *result[] = {
/* columns rows colors chars-per-pixel */
"64 64 187 2 ",
"   c #022E07",
".  c #062F08",
"X  c #033307",
"o  c #053C07",
"O  c #053508",
"+  c #09320E",
"@  c #063B08",
"#  c #093E09",
"$  c #0E3B11",
"%  c #1C371D",
"&  c #123918",
"*  c #233C24",
"=  c #074307",
"-  c #084607",
";  c #0A430A",
":  c #0A4808",
">  c #114E0F",
",  c #114411",
"<  c #124F10",
"1  c #17451A",
"2  c #18431A",
"3  c #1A4D19",
"4  c #145012",
"5  c #195417",
"6  c #1C571A",
"7  c #1E5A1C",
"8  c #215D1E",
"9  c #1F611F",
"0  c #224D26",
"q  c #284927",
"w  c #244F29",
"e  c #235423",
"r  c #235C20",
"t  c #26512B",
"y  c #2A522D",
"u  c #2A5C29",
"i  c #384C39",
"p  c #2D5632",
"a  c #325534",
"s  c #325935",
"d  c #3A553A",
"f  c #1F6220",
"g  c #256222",
"h  c #296625",
"j  c #266A25",
"k  c #2A6A27",
"l  c #276429",
"z  c #2B6128",
"x  c #2D6A29",
"c  c #316E2D",
"v  c #2A7027",
"b  c #2C7328",
"n  c #33702F",
"m  c #327A2F",
"M  c #2F6E30",
"N  c #336332",
"B  c #336E31",
"V  c #3D663B",
"C  c #3C6B38",
"Z  c #367231",
"A  c #3A7635",
"S  c #3B7937",
"D  c #3F743A",
"F  c #3E7A39",
"G  c #41693E",
"H  c #41743C",
"J  c #427D3D",
"K  c #4A594A",
"L  c #456746",
"P  c #486147",
"I  c #4E6D4D",
"U  c #506E4E",
"Y  c #437F40",
"T  c #4E794C",
"R  c #566C55",
"E  c #5A695A",
"W  c #547253",
"Q  c #5A745A",
"!  c #5D7A5D",
"~  c #697269",
"^  c #6C7C6B",
"/  c #3B8137",
"(  c #3E8439",
")  c #43823E",
"_  c #438A3E",
"`  c #468142",
"'  c #4A8445",
"]  c #478E41",
"[  c #498F43",
"{  c #4D864A",
"}  c #4F8849",
"|  c #50874E",
" . c #528A4D",
".. c #4B9245",
"X. c #4F9548",
"o. c #51964B",
"O. c #53984C",
"+. c #558153",
"@. c #558C51",
"#. c #588E53",
"$. c #559051",
"%. c #5B9156",
"&. c #579B51",
"*. c #5E9359",
"=. c #608D5D",
"-. c #62965D",
";. c #63995F",
":. c #5EA257",
">. c #61A35B",
",. c #658A63",
"<. c #6A826B",
"1. c #6C8E69",
"2. c #649261",
"3. c #669A61",
"4. c #699E64",
"5. c #6D9E69",
"6. c #709F6D",
"7. c #768476",
"8. c #718972",
"9. c #7C8C7C",
"0. c #739272",
"q. c #6CA167",
"w. c #6FA269",
"e. c #72A36E",
"r. c #76A472",
"t. c #78A475",
"y. c #7BAA76",
"u. c #7DA57B",
"i. c #81A47E",
"p. c #82AD7D",
"a. c #848B83",
"s. c #898C88",
"d. c #899188",
"f. c #899688",
"g. c #909B8F",
"h. c #939692",
"j. c #959C95",
"k. c #9D9F9C",
"l. c #83A580",
"z. c #85AA83",
"x. c #89AC87",
"c. c #8BAE89",
"v. c #90AD8F",
"b. c #8AB286",
"n. c #8EB28B",
"m. c #91B58D",
"M. c #93AD91",
"N. c #98A598",
"B. c #95B293",
"V. c #9BB69A",
"C. c #A0BB9D",
"Z. c #A0ADA0",
"A. c #A3BCA1",
"S. c #AAB5A9",
"D. c #ACB9AB",
"F. c #B5B8B4",
"G. c #B5BBB4",
"H. c #BCBEBB",
"J. c #C1BFBF",
"K. c #A9C2A7",
"L. c #ADC5AB",
"P. c #B9C5B8",
"I. c #BDD1BC",
"U. c #C0CCBE",
"Y. c #C6C5C5",
"T. c #C8C8C7",
"R. c #CCCECB",
"E. c #D0CECF",
"W. c #CED2CD",
"Q. c #CFDCCE",
"!. c #D0D3CF",
"~. c #D4D4D3",
"^. c #D2DAD2",
"/. c #D8D8D7",
"(. c #DCDADA",
"). c #E1DFDF",
"_. c #DEE3DD",
"`. c #E3E4E3",
"'. c #E8E7E7",
"]. c #E3E9E3",
"[. c #ECECEC",
"{. c #F0EFEF",
"}. c #EEF3EE",
"|. c #F3F3F3",
" X c #F7F8F7",
".X c #F8F7F8",
"XX c #FFFFFF",
/* pixels */
"XXXXXXXXXXXXXXXXXXXXXXXXXXXXXXXXXXXXXXXXXXXXXXXXXXXXXXXXXXXXXXXXXXXXXXXXXXXXXXXXXXXXXXXXXXXXXXXXXXXXXXXXXXXXXXXXXXXXXXXXXXXXXXXX",
"XXXXXXXXXXXXXXXXXXXXXXXXXXXXXXXXXXXXXXXXXXXXXXXXXXXXXXXXXXXXXXXXXXXXXXXXXXXXXXXXXXXXXXXXXXXXXXXXXXXXXXXXXXXXXXXXXXXXXXXXXXXXXXXX",
"XXXXXX|.].].].].].].].].'.'.].].].].]._._.].`.`.`.`.].].].].`.`.].].].`.`.`.].].'.`.`.'.].`.].`.`.`.].].].].`.].].].].].|.XXXXXX",
"XXXXXXV.$.;.;.3.4.5.5.6.6.6.6.t.r.i.i.i.p.l.z.x.x.c.c.c.M.c.M.M.v.v.c.v.v.c.c.z.z.z.i.p.u.u.u.t.t.r.6.6.5.5.4.4.3.;.;.$.B.XXXXXX",
"XXXXXXm.:.3.4.q.q.w.e.e.t.t.y.y.p.p.p.p.p.b.p.b.c.n.n.m.m.m.m.m.m.m.m.m.c.n.b.b.p.b.p.p.p.p.p.y.y.t.r.e.e.w.e.4.q.3.;.>.n.XXXXXX",
"XXXXXXc.O.#.$.$.$.%.%.*.*.*.*.*.-.-.-.-.;.;.;.;.3.3.3.3.3.3.3.3.3.3.3.3.3.3.3.;.-.-.;.;.-.-.-.-.*.*.*.%.%.$.$.$.o. . .&.n.XXXXXX",
"XXXXXXn.O. . .$.$.$.$.%.%.*.*.*.-.-.%.-.-.-.-.-.-.-.;.-.;.-.-.-.;.;.-.-.-.-.-.-.-.-.-.-.#.-.-.#.%.%.%.$.$.#. . . . . .&.n.XXXXXX",
"XXXXXXc.X. . . . . . .#.#.$.$.%.#.%.#.-.=.-.%.-.*.*.-.*.-.-.-.*.-.=.-.*.-.*.*.*.-.#.#.-.#.@.#.#.$.#.#. .o.@. . .}  .} &.c.XXXXXX",
"XXXXXXn.X.} } }  . . . . . . .$.@.#.#.#.#.#.#.=.%.%.%.=.*.%.*.*.#.*.#.*.#.#.=.#.%.#.#.#.#.#.@.@.@. . . .} } } } ' } ' O.v.XXXXXX",
"XXXXXXc.X.} ) } } } }  . .}  . . . .@. .@.@.@.#.#.@.@.#.@.#.@.#.#.#.#.#.#.#.@.@.@.@.@. . . . . .}  .} } } } ' ' ' ' ' o.v.XXXXXX",
"XXXXXXc...) ) ' ' ' ' ' ' }  .'  . . . . . . . . . . . . .@. . . . . . . . . . . . . .}  .} } } } ' } ' ' ' ` ' ) ` ) o.n.XXXXXX",
"XXXXXXv.X.) ) ) ) ` ' ' ' ' ' ' ' ' ' ' } } } ' } } }  .} | |  . .| | |  .' } | } ' } } ' ' ' } ' ' ' ) ' ) ) ) ) J ) o.c.XXXXXX",
"XXXXXXc._ ) ) J J J ) J ) ` ' ` ' ) ' ' ' ' ' ' ' ' ' } Y Y G H H H H J ' } ' ' ' ) ' ' ' ) ) ) J ) ' J J J J ) J J J ..m.XXXXXX",
"XXXXXXb._ J J J J J J J J J J J J J J ' Y Y Y J J ' H G I ^ a.d.d.a.7.Q G C J ` Y J J J J J J J J J J J J J J F S S F ..c.XXXXXX",
"XXXXXXc._ J S S J S J S J J J J J J J J J J J J H V ^ F.`. XXXXXXXXX X[.~.j.R C J J J J J J J J S H J J S S S S S S A [ n.XXXXXX",
"XXXXXXc._ A A A A A A A A S S H A J S H J J J A U F.|.XXXXXXXXXXXXXXXXXXXX.X'.g.H J H J J H H S S H A A A S A A Z A A [ c.XXXXXX",
"XXXXXXc.] Z Z Z A A A A A A A A A S A A A A A W !.XXXXXXXXXXXXXXXXXXXXXXXX.XXX|.1.A A A A A A A A Z Z A A Z Z Z Z Z Z _ n.XXXXXX",
"XXXXXXc._ n Z n n n n n n n n A A n A A A A G P.XX.XXX.X.X].I.L.L.L.Q.}.XXXXXX.Xl.c A A A n A A Z Z Z Z n n n n n n n _ n.XXXXXX",
"XXXXXXn._ n c c n c c n n n n n n c n n c c i..XXXXXXX|.C.@.D A A A J 2.A.].XX.Xi.c A c c c c c n n n n c c c c c c c _ c.XXXXXX",
"XXXXXXc._ x x x x x c x x n x c c c c c c C U.XX.X.X XB.Z c c c c c c c B #.K.^.=.c c c c c c c c c x v c x x c v x x _ b.XXXXXX",
"XXXXXXc.( x x x x x x x x c x c c x c x x T '..X.XXX!.J h c c c c x x c c c c H c x x c c c h x k k x x k x x k x k k _ v.XXXXXX",
"XXXXXXn.( k h k h h h k h h h h h h z c z ,.[.XX.XXXC.x x x h x x x x z h x h x z c h h h x h x h k k h h h h h h h k ( c.XXXXXX",
"XXXXXXc.( h g g h g h h h h h h h h h h g ,.{. X.XXXM.h h h h h z h h h h h h h h h z h h h h h h h h h h h h g g g h ) c.XXXXXX",
"XXXXXXn.( h g g g g g g g g g h g g g g g =.{. X.X.XD.z 8 h g h g h g g h g h g g h g g g g g g g g g g g g g g g g g ( n.XXXXXX",
"XXXXXXc.( g f f 8 g g 8 8 g 8 g g g g g 8 T [. X.X.X).I 8 8 8 u g g g g g g g g g g g g 8 g g 8 g g 8 g 8 g f r g 8 g / b.XXXXXX",
"XXXXXXn./ r 8 8 8 8 8 8 8 8 8 8 8 8 8 8 8 C ^. X X X.XG.a 8 8 8 8 r 8 g 8 8 8 8 8 8 8 8 8 8 8 8 8 8 8 8 8 8 8 8 8 8 8 / m.XXXXXX",
"XXXXXXc./ 8 8 7 7 8 8 8 8 8 8 8 8 8 8 8 8 8 v..X|..X|.|.H.K 3 6 8 7 8 8 8 8 8 8 8 8 8 8 8 8 7 8 8 8 8 7 8 8 7 8 8 8 8 / c.XXXXXX",
"XXXXXXc.S 8 6 7 7 7 6 8 6 7 7 7 6 8 6 8 8 6 H ^..X|.|.|.|.~.i.i 3 6 7 7 7 7 7 7 7 7 6 7 7 8 7 7 8 6 6 7 7 7 7 7 6 6 8 S c.XXXXXX",
"XXXXXXc./ 7 6 6 6 6 7 6 6 6 6 6 5 6 6 7 6 6 6 2.].|.|.|.|.|.|.E.i.d 3 5 6 5 7 6 7 6 6 6 6 6 6 7 5 6 6 6 6 6 6 6 6 6 7 / n.XXXXXX",
"XXXXXXc.m < > < > > > > < > 4 > > > 4 > 4 > > 4 2._.|.{.|.|.|.|.'.~.s.d , > > > < < < < < > > > > > > > < < < < < < < m x.XXXXXX",
"XXXXXXc.b : - - - - - - - - : - - - - - - - - - ; T U.{.|.|.{.{.{.{.|.!.a.q o - - - - - - : - : - - - : - - - - - - : b c.XXXXXX",
"XXXXXXc.b : - - - - - - - - - - - - - - - - - - - = 8 i.!.{.|.{.{.{.{.|.{.T.E ; - - - - - - - - - - - - - = - - - - : b c.XXXXXX",
"XXXXXXc.b ; = - - - - - - - - = - - = - = - - - - - = - z i.W.[.{.{.{.{.{.|.).7., = - - - = - - - - = - - - - - = = ; b n.XXXXXX",
"XXXXXXc.b - = = = = = = = = = = = = = = = = = = = = = = o - u 0.Y.[.{.[.[.[.{.`.^ - = = = = = = = = = = = = = = = = ; b c.XXXXXX",
"XXXXXXc.b = = = = = = = = = = = = = = = = = = = = = = = ; = = o e 0.!.{.{.[.[.{.~.d o = = = = = = = = = = = = = = = = b c.XXXXXX",
"XXXXXXc.b ; = = = # = o = # = = @ = = ; @ = = = = o o = = = = = @ @ N D.[.[.'.[.{.g.= = = = @ = = = @ = = o = = = = ; k c.XXXXXX",
"XXXXXXc.v = o o o = o = o = o = = @ = o = o = @ o = o = = o = o = o o 8 D.[.'.[.[.R.e o = o = o o = o o = o = # o = # v c.XXXXXX",
"XXXXXXc.v # o = # o = o o = = o @ = o = @ = o = = o = o o = o = o o o o V ^.[.'.[.).L o o = o = = o = = # = o = = o # v x.XXXXXX",
"XXXXXXx.v o o o o = o o = o o o = o o = = o o o = o o o o o o o o = o o ; S.[.'.'.`.Q o o = o o o o o o o = o o o o = v c.XXXXXX",
"XXXXXXc.v = o o o o o o o o o o o @ o o o o o o o o # o o o o o o o o o # g.'.'.'._.! o o o o o o # o o o o o o o o # j c.XXXXXX",
"XXXXXXc.j o o O o o o o o o o o o o o X o o o o o o o o o o o o o o o O # N.'.'.'.).U X o o o o o o O o O o o o o o o j b.XXXXXX",
"XXXXXXx.j # o o X o o o o O o X o o o o o X X X o o X o X o o o o o o o % F.'.`.`.~.N o o o o O o o o X o o o O o O o j b.XXXXXX",
"XXXXXXc.j o O o o o o o O o o o O o o o $ E K O X o O O o o O o o o X X E ).`.`.'.G.1 X o X X o O o o o o o o X O o O j c.XXXXXX",
"XXXXXXc.j O o O O o X X o X X o O O o X y !./.j.i . X . X o o X X X   d J.'.`.`.).1.X o o O o o X o o O X o o o o o O j c.XXXXXX",
"XXXXXXx.j o X O o X o o O o o o X o o X a !.`.`.E.h.K % + . . . O * ~ T.`.).).`.P.w X o X o o X o O o X o O o O o o O j x.XXXXXX",
"XXXXXXx.9 o O X X X X O X X X X X X X X p E.`.).).'.).J.k.s.s.s.k.Y.).`.).`.`.!.U O X o X X O X X X O X X X X X X O O g x.XXXXXX",
"XXXXXXx.f X O O X O X X X X X X X X O X , N.`.`.).).).).`.`.`.`.).).).).).`.E.Q O X X X X X o X X X o X X X X X X X O j c.XXXXXX",
"XXXXXXx.j X o X X O o X O X X X o X O X X q f.E.).'.).).).).).).).).).`.).D.P O O O X X X X O X X X X X o O X X X X X g c.XXXXXX",
"XXXXXXc.f X X X X X X X X X X X O X X O X X + s 9.D.E.(.).).`.`.)./.T.Z.Q 2 X X O X O X X X   O X X X X X O X O X X O f c.XXXXXX",
"XXXXXXc.g X X X X X X X X X X X X O   X   X X X O 1 p W <.8.8.8.<.I y $ X X   X X X   X   O X O X X X X X X   X X X X f x.XXXXXX",
"XXXXXXx.f X X X X X X X X O   O O   X X X   X   X X                   X X     O   X   X X   X X   X X X X . O     X   f c.XXXXXX",
"XXXXXXx.f                           +     X   X       X X   X   X   X     X O   O   O     O       X   X X     O   X X f x.XXXXXX",
"XXXXXXx.9     X           O                             X   X       X                         . X   X               X 9 x.XXXXXX",
"XXXXXXx.9           O               O             X                           +       O                 X       X     f x.XXXXXX",
"XXXXXXx.7                                                                                                             7 x.XXXXXX",
"XXXXXXx.7 X                                                                                                           7 x.XXXXXX",
"XXXXXXx.7                                                                                                             6 x.XXXXXX",
"XXXXXXx.f + + O + + + + + + + + + + . + + + + . + + + + + + + + + + + X + + + + + + X + + + + + + + . + + + + + + . + f x.XXXXXX",
"XXXXXXx.l & & & & & & & & & & & & & & & & & & & & & & & & & & & & & & & & & & & & & & & & & & & & & & & & & & & & & & l x.XXXXXX",
"XXXXXXc.M 0 0 0 w w w w w q t q t y y y p y p p p p p p a p s s a a s p p p p p p p y y y y y w w w w w w w 0 0 0 0 0 M x.XXXXXX",
"XXXXXXB.F Y Y Y Y Y ` ` ' ` { ` ' { { { | { | { | | +.@.@.| @.+.@.+.| @.+.@.| | { { | | { { ' ' { ' Y T ` ` Y Y Y Y ` F M.XXXXXX",
"XXXXXX|.].].].].].].].].].].].].].].].].].].].].].].].].].].].].].].].].].].].].].].].].].].].].].].].].].].].].].].].].|.XXXXXX",
"XXXXXXXXXXXXXXXXXXXXXXXXXXXXXXXXXXXXXXXXXXXXXXXXXXXXXXXXXXXXXXXXXXXXXXXXXXXXXXXXXXXXXXXXXXXXXXXXXXXXXXXXXXXXXXXXXXXXXXXXXXXXXXXX",
"XXXXXXXXXXXXXXXXXXXXXXXXXXXXXXXXXXXXXXXXXXXXXXXXXXXXXXXXXXXXXXXXXXXXXXXXXXXXXXXXXXXXXXXXXXXXXXXXXXXXXXXXXXXXXXXXXXXXXXXXXXXXXXXX"
};
