/* XPM */
static char *result[] = {
/* columns rows colors chars-per-pixel */
"64 64 169 2 ",
"   c #5E3204",
".  c #4F3618",
"X  c #593812",
"o  c #51381B",
"O  c #633504",
"+  c #673805",
"@  c #6B3C05",
"#  c #62370B",
"$  c #703F04",
"%  c #663D14",
"&  c #6F4007",
"*  c #6E420F",
"=  c #744306",
"-  c #794707",
";  c #7C4A07",
":  c #744408",
">  c #784708",
",  c #7C4B09",
"<  c #6E4211",
"1  c #7F4A10",
"2  c #744A1D",
"3  c #764C22",
"4  c #784F26",
"5  c #764D29",
"6  c #795027",
"7  c #7B542C",
"8  c #7E5730",
"9  c #786957",
"0  c #804D07",
"q  c #824F08",
"w  c #845007",
"e  c #855209",
"r  c #885308",
"t  c #8C580D",
"y  c #824D13",
"u  c #865115",
"i  c #895416",
"p  c #8E5B12",
"a  c #85531D",
"s  c #8C5718",
"d  c #8D5A19",
"f  c #925D1B",
"g  c #95651D",
"h  c #99651E",
"j  c #99681F",
"k  c #815521",
"l  c #8C5A24",
"z  c #9C6B22",
"x  c #946732",
"c  c #976A37",
"v  c #976B38",
"b  c #996D3C",
"n  c #9A703F",
"m  c #A06E24",
"M  c #A17126",
"N  c #A4752A",
"B  c #A8772F",
"V  c #A7782D",
"C  c #A97A2E",
"Z  c #A66F3F",
"A  c #AC7D32",
"S  c #AA763D",
"D  c #896B47",
"F  c #8B6E49",
"G  c #8F714A",
"H  c #9C7344",
"J  c #93744C",
"K  c #9E7749",
"L  c #9E784C",
"P  c #A66F40",
"I  c #A77040",
"U  c #AF7D40",
"Y  c #A37E4B",
"T  c #977B65",
"R  c #AF8135",
"E  c #AF8238",
"W  c #B18236",
"Q  c #B3853A",
"!  c #B6893E",
"~  c #B98B3D",
"^  c #AB874D",
"/  c #B48741",
"(  c #B68A41",
")  c #B98D43",
"_  c #BC9146",
"`  c #BD934B",
"'  c #A9875B",
"]  c #AD8A5F",
"[  c #B68A55",
"{  c #B4925C",
"}  c #BC9659",
"|  c #BD995E",
" . c #9B8163",
".. c #B18E62",
"X. c #B69464",
"o. c #B69768",
"O. c #BA9669",
"+. c #B7996C",
"@. c #A88F73",
"#. c #AC9375",
"$. c #B19777",
"%. c #B89D73",
"&. c #B49B79",
"*. c #B99F7A",
"=. c #BAA17C",
"-. c #C19346",
";. c #C1964D",
":. c #C3994E",
">. c #C09751",
",. c #C39A54",
"<. c #C89E55",
"1. c #C59E5A",
"2. c #C7A05D",
"3. c #C9A25E",
"4. c #CAA463",
"5. c #CEA966",
"6. c #CFAA69",
"7. c #D0AC6D",
"8. c #D2AF72",
"9. c #D3B276",
"0. c #D4B47C",
"q. c #B19E8D",
"w. c #A49C93",
"e. c #BCA486",
"r. c #BDA788",
"t. c #BEA98A",
"y. c #B8A796",
"u. c #BEAB91",
"i. c #C5AA86",
"p. c #C2AC8C",
"a. c #CCB28D",
"s. c #D6B780",
"d. c #D7B985",
"f. c #D9BD8C",
"g. c #C3AF92",
"h. c #CCAD91",
"j. c #C9B596",
"k. c #CFB892",
"l. c #D2BA95",
"z. c #DABF90",
"x. c #D5BE99",
"c. c #D7BFB4",
"v. c #DAC091",
"b. c #D7C19B",
"n. c #D0C3B2",
"m. c #E1CFBD",
"M. c #C7C6C7",
"N. c #C8C7C8",
"B. c #C9C9CA",
"V. c #D3CCC6",
"C. c #D2CFCC",
"Z. c #DAD5D7",
"A. c #DBD7D9",
"S. c #DDDBDA",
"D. c #E1DFDF",
"F. c #E2E0DF",
"G. c #E0DFE0",
"H. c #E3E2E2",
"J. c #ECE6E3",
"K. c #EDE8E3",
"L. c #E8E7E8",
"P. c #ECEBEB",
"I. c #F1EFEE",
"U. c #F6F3ED",
"Y. c #EFEFF0",
"T. c #F3F3F3",
"R. c #F8F6F4",
"E. c #F7F7F9",
"W. c #FFFFFF",
/* pixels */
"W.W.W.W.W.W.W.W.W.W.W.W.W.W.W.W.W.W.W.W.W.W.W.W.W.W.W.W.W.W.W.W.W.W.W.W.W.W.W.W.W.W.W.W.W.W.W.W.W.W.W.W.W.W.W.W.W.W.W.W.W.W.W.W.",
"W.W.W.W.W.W.W.W.W.W.W.W.W.W.W.W.W.W.W.W.W.W.W.W.W.W.W.W.W.W.W.W.W.W.W.W.W.W.W.W.W.W.W.W.W.W.W.W.W.W.W.W.W.W.W.W.W.W.W.W.W.W.W.W.",
"W.W.W.T.J.J.J.J.J.J.J.J.J.J.J.J.J.J.L.L.J.J.J.J.L.L.J.J.L.J.L.J.J.J.J.L.J.J.J.J.J.J.J.J.J.J.J.F.J.J.J.J.J.J.J.J.J.L.J.J.R.W.W.W.",
"W.W.W.j.^ { { X.X.o.o.+.+.%.%.%.*.*.*.*.=.e.e.e.r.r.t.t.t.u.p.u.u.u.t.u.t.r.r.r.e.e.=.e.=.=.&.=.%.%.+.+.o.o.X.X.{ { { ^ u.W.W.W.",
"W.W.W.p.<.4.5.5.6.7.8.6.8.9.9.9.0.s.s.s.d.d.d.f.d.f.f.v.z.z.x.v.v.v.f.l.f.f.f.d.d.d.d.s.s.0.0.9.9.9.9.7.7.7.6.5.3.5.3.2.t.W.W.W.",
"W.W.W.r.-.<.<.<.<.1.1.2.2.2.2.2.1.4.4.4.4.4.4.4.4.4.4.4.5.4.4.4.5.4.4.4.4.5.4.4.4.4.4.4.4.4.4.4.3.2.2.2.2.<.<.<.<.<.:.:.p.W.W.W.",
"W.W.W.p.-.,.,.,.,.<.,.1.<.2.2.2.1.4.4.2.2.4.4.2.4.4.4.4.4.4.4.4.4.4.4.4.4.4.4.4.4.4.3.4.1.3.1.3.1.1.1.1.,.<.,.,.<.,.,.;.p.W.W.W.",
"W.W.W.t.-.,.:.:.,.,.,.,.,.,.,.<.1.,.1.1.1.1.1.2.2.2.1.2.4.1.2.2.2.4.2.2.1.4.1.4.2.1.1.1.1.1.1.1.<.1.,.,.,.,.,.,.:.;.;.;.t.W.W.W.",
"W.W.W.r._ :.` ` ` ;.:.:.>.,.,.,.,.,.,.,.,.1.,.1.1.1.1.1.1.1.2.1.| 1.1.1.1.1.1.1.1.1.,.1.1.,.,.,.,.,.,.,.:.,.:.:.;.;.;.;.i.W.W.W.",
"W.W.W.p.-.;.` _ ` ` ;.` ` ,.>.` ,.,.,.,.} ,.,.,.,.,.,.,.} 1.,.,.1.,.,.,.,.,.,.,.,.,.} ,.,.,.} >.;.;.` ;.` ` ` ` ` _ _ -.t.W.W.W.",
"W.W.W.r.~ -._ _ _ _ ` ` ` ` ` ` ` ` ` } >.>.>.,.} >.>.>.,.,.,.,.} ,.| ,.>.>.>.,.>.>.>.>.` ` ` ` ` ` ` ` ` ` _ _ _ _ _ _ t.W.W.W.",
"W.W.W.p.~ _ _ _ _ _ _ _ _ _ ` ` _ ` ` ` ` ` ` ` ` ` ` } ` ` ` ` ` ` ` ` } ` ` ` ` ` ` ` ` ` ` ` ` ` ` ) _ _ _ _ ) _ ~ _ t.W.W.W.",
"W.W.W.t.~ _ ~ ~ ) ) ) ) ) ) ) _ ) _ _ _ _ _ ` -.` ` ` _ -.` ` ` ` ` ` ` ) ` ) -.` _ ` _ _ _ _ _ ) ) _ ) ) ) ) ( ~ ) ~ ) p.W.W.W.",
"W.W.W.i.~ ~ ! ! ! ( ! ( ( ) ( ) ) ) ) ) ) ) / S P P P P Z Z P P I I Z Z P P Z Z P U _ ) _ / ) ) ) ( ) ( ( ~ ~ ! ! ! ~ ) t.W.W.W.",
"W.W.W.t.~ Q Q Q Q Q Q ! ! ! ! ! ! / ( / / / [ c.G.J.J.J.J.J.F.J.J.J.J.J.J.J.J.J.J.h./ / / / ( / ( ( ! Q ! Q Q ! Q Q Q ~ t.W.W.W.",
"W.W.W.t.~ Q W Q W Q Q Q Q Q Q Q Q ! ! ! / Q a.W.W.W.W.W.W.W.W.W.W.W.W.W.W.W.W.W.W.m./ Q / Q ! Q Q Q Q Q Q Q Q W Q W W ! p.W.W.W.",
"W.W.W.t.Q W W W R R R R R W R R W W W Q Q R b.W.E.W.W.W.W.E.W.W.W.W.E.W.W.E.W.W.W.m./ R Q W R R Q Q R E W W W R R R W Q 9.W.W.W.",
"W.W.W.r.Q W A C R R R R R R R R R W R W R R b.W.W.W.W.U.U.U.U.U.U.U.U.U.U.U.U.U.U.b.E R R R R R A R R R C R R R C R R ~ r.W.W.W.",
"W.W.W.t.W R C A C R C R C R C R R R C W A A l.W.W.E.T.h.| 1.| | | | | | | | o.| } E R R R R R R A A A A R R C C C R C Q r.W.W.W.",
"W.W.W.t.W C C C V C C C C C C R C C C C C V l.W.W.E.U.O.V C A C C C R C C C V V C C V R V V V R C C C C C C C V C C C W t.W.W.W.",
"W.W.W.r.W C V N V N V V V V V V V V V V V V l.W.E.W.U.O.V C C V C C V C B V V B C V V V V V V V V V V V N V V V V V V W t.W.W.W.",
"W.W.W.i.W N N N N N N N V M V V N N N N V M k.E.E.W.U.X.N N V V V V V N N N B V V V N V V b V N N N N N N N V M M M N W r.W.W.W.",
"W.W.W.e.W N m N M M M M M M M M N N M N M M k.E.E.E.P.X.M N N M V M M N N N N V N N M N N M N N N M N M M M M M M M M W t.W.W.W.",
"W.W.W.i.A m m m M M M m M M M M M M M M M m a.W.E.E.U...M M M M M M M M N M z z M M z M M M z z M M M M M m M M M M M A t.W.W.W.",
"W.W.W.r.A z z z z z z z z m z z z z z z m j a.E.E.R.U...z m z M z z z z z z M z z z M z z z z z m z z m z z z z m j z A p.W.W.W.",
"W.W.W.r.B z z z z z z z z z z z z z z z z j a.E.E.E.P.] j z z z z z z z z z z z z z z z z z z z j z z z z z z z m j z A r.W.W.W.",
"W.W.W.r.A z g g j z z g j j j j z g z z g g p.E.T.R.P.] g g z z z z g z g z z z z g g z z z g z j j j j j j g g j j j C r.W.W.W.",
"W.W.W.r.C j g g g g j g g g g g g z g g g g a.R.T.R.P.' g g g g z g g g g g z g z g g g g z g g g g j g g g g g h g j C r.W.W.W.",
"W.W.W.r.V g g g g g g g g g g g g f g g g p i.R.T.T.P.T 3 5 5 5 5 5 5 5 5 5 5 6 g g g g g g g g g g g g g g g g g g g V r.W.W.W.",
"W.W.W.r.M p p p p p p p p t p p p p p p p p e.T.T.T.I.G.Z.Z.Z.Z.Z.Z.Z.Z.Z.Z.A.q.p p p p p p t p p p p p p p p p p p p M r.W.W.W.",
"W.W.W.r.m r r r w r r r e w r r r r r r r w =.T.Y.U.I.T.T.T.T.T.T.T.T.T.T.T.T.n.p e r r e r r r r r r r r r r r r e r m r.W.W.W.",
"W.W.W.r.m r w r w w r e w e r e e e e e e w =.U.I.Y.I.T.Y.T.T.T.T.Y.Y.T.T.E.E.n.p w r w e e r e e e r e r w e w r w r z r.W.W.W.",
"W.W.W.e.z e w q w w w e w w w w w w w w w ; =.Y.I.I.P.n.g.g.g.g.g.g.g.g.g.g.g.^ w w w e w w w w w w w w r w w e w w r z r.W.W.W.",
"W.W.W.e.z e 0 q , w q w q q q w ; w e ; w ; =.Y.Y.Y.F.J ; e e e e e e e e 1 , ; w w w , w w w w , w , w ; w w ; ; w e j r.W.W.W.",
"W.W.W.e.z 0 0 0 0 0 w ; ; 0 w 0 w ; w w ; ; =.Y.P.P.F.L ; w w ; , q , w ; e w ; w ; 0 0 , w , w w w w , ; w ; w w w , z r.W.W.W.",
"W.W.W.e.z 0 0 ; , ; ; 0 , ; ; ; ; ; ; ; ; ; &.Y.P.P.F.J ; ; ; ; , , ; 0 ; ; ; ; ; 0 ; ; ; ; ; ; ; ; ; , w ; ; ; ; ; , j r.W.W.W.",
"W.W.W.r.z - - ; ; ; ; ; ; ; ; ; ; ; ; ; ; - %.P.P.P.F.J - ; ; ; ; ; ; - ; ; ; ; - ; ; ; ; ; - ; ; ; ; ; ; ; ; ; ; ; , h r.W.W.W.",
"W.W.W.e.z - - - ; ; ; - - - - ; ; ; ; ; ; - $.P.L.P.F.G - - - ; - ; - > ; ; ; ; - - - ; ; - ; - ; ; - - ; - - - ; - - h e.W.W.W.",
"W.W.W.e.f - - - - - - - - - - - - - > > ; = $.P.L.L.S.J - - - - - - - - - - > - - - - - - - - - > > > - - > - - - - - h r.W.W.W.",
"W.W.W.r.g - - = - - - - = - = - - = - - = = $.P.L.L.S.G - = - - - > - - = - - > - = - - - - = - - = > - - - - = - - - f r.W.W.W.",
"W.W.W.e.f : - - - = = - = = = - = = = = = = #.L.H.L.S.G = = = = = - = = = = - = = - = = = = - = = - : : = = - : = = : g e.W.W.W.",
"W.W.W.e.f : = = = = = = = = = = = = = = = = #.J.L.L.S.F = = = = = = = = = = = = = = = = = = = = = = = = = = = = = = : f e.W.W.W.",
"W.W.W.r.f = $ = = = = $ = = & = = = = = = & #.L.H.H.S.D & & = = & = = = = = = = & = = = = = @ = = @ = $ = = = & = = = f r.W.W.W.",
"W.W.W.e.d & = @ @ = @ = @ = @ = & & & & & @ #.H.H.H.S.D & & & & @ = @ & $ $ @ $ @ = & @ = @ = = & = $ = & @ $ = @ = $ d e.W.W.W.",
"W.W.W.e.d = $ $ @ = @ = & = @ @ & = @ & @ @ @.J.H.H.S.9 . . o . . . o o o o o o o X & & @ = & & @ = @ = & & @ = $ $ $ d e.W.W.W.",
"W.W.W.e.d @ @ @ @ @ @ @ @ @ @ @ @ @ @ @ @ @ @.H.H.F.G.C.B.B.B.B.B.B.N.B.N.N.N.M.B.w.: @ @ @ @ @ @ @ @ @ @ @ @ @ @ @ $ s e.W.W.W.",
"W.W.W.e.s @ @ @ @ @ @ @ @ @ @ @ @ @ @ @ @ @ @.H.G.G.G.H.F.F.F.F.F.F.H.H.F.H.H.H.H.V.2 @ @ @ @ @ @ @ @ @ @ @ @ @ @ @ @ s r.W.W.W.",
"W.W.W.e.s @ + @ + @ @ @ @ @ @ @ @ @ @ @ + +  .G.H.F.G.F.G.F.F.F.F.F.F.F.F.H.D.F.H.V.2 @ @ @ @ + @ @ @ @ @ @ + @ @ + @ i e.W.W.W.",
"W.W.W.e.i @ + + + @ @ + + + @ + + + @ + + + 6 y.V.V.V.V.V.V.V.V.V.V.V.V.V.V.V.V.V.y.< @ @ + + + + + + + + + @ + + + & u e.W.W.W.",
"W.W.W.e.u + + + + + + + + + + + + + + + + + + * 2 2 2 2 2 2 2 2 2 2 2 2 2 2 2 2 2 < + + + + + + + + + + + + + + + + + u e.W.W.W.",
"W.W.W.e.i + O O O + O O O + + O + + + O + O + + +   + + + +   + + + +   +   +   O + + O O + + + + O + + # + + + + + O u e.W.W.W.",
"W.W.W.e.u + O O + O O + + O + O O O O O + O + O + + +     + + + +   +   + + + + O O O + O O O O O + O O + O O O + + O u e.W.W.W.",
"W.W.W.e.y O O O +     + O   O O O O O O O O O O       +   + +       +     +     O +   + O   O O O O O O O O O O O O O y e.W.W.W.",
"W.W.W.e.y O O O   +   O O O O O O O O O O O O O   +   + +     + +     + +   +   O   O   O O O O O O O O O O O O O   O y e.W.W.W.",
"W.W.W.e.y   O       # O   O     O     O     O       +             +     +         +       O         O       O     O   y e.W.W.W.",
"W.W.W.e.1                                                                               O                             1 e.W.W.W.",
"W.W.W.e.1                                                                                                             y e.W.W.W.",
"W.W.W.e.y # # # # # # X # # #   # # # # # # # # # # # # # # # # + X # X   # # # # # # # #   # # # # # # # # # # # # X y q.W.W.W.",
"W.W.W.e.k % % % < < X < X < < < % % % % % % % % % % % % % % % % < < X < % % < % % % % % % % % % % % % % % % % % % % % a e.W.W.W.",
"W.W.W.e.l 3 2 2 3 3 3 3 3 5 5 5 6 6 6 6 7 6 7 7 7 7 7 8 8 7 8 7 8 8 8 8 8 7 7 7 7 7 7 6 7 6 6 4 6 3 3 3 3 3 3 2 2 2 2 l e.W.W.W.",
"W.W.W.g.x c c b v b b b n n n n H H H H H K H K K K K K K L Y Y L L K K L K K K K H K H H H n H n n b b b b v v c c c x t.W.W.W.",
"W.W.W.T.K.K.K.K.K.K.J.K.K.K.J.J.K.K.J.J.J.K.K.K.J.J.J.J.K.K.L.J.K.K.J.J.L.J.J.J.K.K.J.J.K.K.J.K.K.K.K.K.K.K.K.K.K.K.K.K.R.W.W.W.",
"W.W.W.W.W.W.W.W.W.W.W.W.W.W.W.W.W.W.W.W.W.W.W.W.W.W.W.W.W.W.W.W.W.W.W.W.W.W.W.W.W.W.W.W.W.W.W.W.W.W.W.W.W.W.W.W.W.W.W.W.W.W.W.W.",
"W.W.W.W.W.W.W.W.W.W.W.W.W.W.W.W.W.W.W.W.W.W.W.W.W.W.W.W.W.W.W.W.W.W.W.W.W.W.W.W.W.W.W.W.W.W.W.W.W.W.W.W.W.W.W.W.W.W.W.W.W.W.W.W."
};
